<svg width="820" height="820" viewBox="0 0 820 820" fill="none" xmlns="http://www.w3.org/2000/svg">
<circle cx="410" cy="410" r="410" fill="#B7E3D2"/>
<g clip-path="url(#clip0_1662_12368)">
<path d="M84.8636 526.182C84.8636 527.462 84.6174 528.547 84.125 529.438C83.6326 530.328 82.9659 531.004 82.125 531.466C81.2879 531.928 80.3485 532.159 79.3068 532.159C78.2614 532.159 77.3201 531.926 76.483 531.46C75.6458 530.994 74.9811 530.318 74.4886 529.432C74 528.542 73.7557 527.458 73.7557 526.182C73.7557 524.902 74 523.816 74.4886 522.926C74.9811 522.036 75.6458 521.36 76.483 520.898C77.3201 520.436 78.2614 520.205 79.3068 520.205C80.3485 520.205 81.2879 520.436 82.125 520.898C82.9659 521.36 83.6326 522.036 84.125 522.926C84.6174 523.816 84.8636 524.902 84.8636 526.182ZM81.9886 526.182C81.9886 525.424 81.8807 524.784 81.6648 524.261C81.4527 523.739 81.1458 523.343 80.7443 523.074C80.3466 522.805 79.8674 522.67 79.3068 522.67C78.75 522.67 78.2708 522.805 77.8693 523.074C77.4678 523.343 77.1591 523.739 76.9432 524.261C76.7311 524.784 76.625 525.424 76.625 526.182C76.625 526.939 76.7311 527.58 76.9432 528.102C77.1591 528.625 77.4678 529.021 77.8693 529.29C78.2708 529.559 78.75 529.693 79.3068 529.693C79.8674 529.693 80.3466 529.559 80.7443 529.29C81.1458 529.021 81.4527 528.625 81.6648 528.102C81.8807 527.58 81.9886 526.939 81.9886 526.182ZM90.5795 532.165C89.6629 532.165 88.875 531.977 88.2159 531.602C87.5606 531.223 87.0549 530.697 86.6989 530.023C86.3466 529.345 86.1705 528.559 86.1705 527.665C86.1705 526.767 86.3466 525.981 86.6989 525.307C87.0549 524.629 87.5606 524.102 88.2159 523.727C88.875 523.348 89.6629 523.159 90.5795 523.159C91.4962 523.159 92.2822 523.348 92.9375 523.727C93.5966 524.102 94.1023 524.629 94.4545 525.307C94.8106 525.981 94.9886 526.767 94.9886 527.665C94.9886 528.559 94.8106 529.345 94.4545 530.023C94.1023 530.697 93.5966 531.223 92.9375 531.602C92.2822 531.977 91.4962 532.165 90.5795 532.165ZM90.5966 530.068C90.9299 530.068 91.2121 529.966 91.4432 529.761C91.6742 529.557 91.8504 529.273 91.9716 528.909C92.0966 528.545 92.1591 528.125 92.1591 527.648C92.1591 527.163 92.0966 526.739 91.9716 526.375C91.8504 526.011 91.6742 525.727 91.4432 525.523C91.2121 525.318 90.9299 525.216 90.5966 525.216C90.2519 525.216 89.9602 525.318 89.7216 525.523C89.4867 525.727 89.3068 526.011 89.1818 526.375C89.0606 526.739 89 527.163 89 527.648C89 528.125 89.0606 528.545 89.1818 528.909C89.3068 529.273 89.4867 529.557 89.7216 529.761C89.9602 529.966 90.2519 530.068 90.5966 530.068ZM96.4119 535.273V523.273H99.1619V524.767H99.2472C99.3608 524.502 99.5218 524.246 99.7301 524C99.9422 523.754 100.211 523.553 100.537 523.398C100.866 523.239 101.26 523.159 101.719 523.159C102.325 523.159 102.891 523.318 103.418 523.636C103.948 523.955 104.376 524.445 104.702 525.108C105.027 525.771 105.19 526.616 105.19 527.642C105.19 528.631 105.033 529.458 104.719 530.125C104.408 530.792 103.988 531.292 103.457 531.625C102.931 531.958 102.346 532.125 101.702 532.125C101.262 532.125 100.882 532.053 100.56 531.909C100.238 531.765 99.9669 531.576 99.7472 531.341C99.5312 531.106 99.3646 530.854 99.2472 530.585H99.1903V535.273H96.4119ZM99.1335 527.636C99.1335 528.106 99.196 528.515 99.321 528.864C99.4498 529.212 99.6335 529.483 99.8722 529.676C100.115 529.866 100.404 529.96 100.741 529.96C101.082 529.96 101.372 529.866 101.611 529.676C101.849 529.483 102.029 529.212 102.151 528.864C102.276 528.515 102.338 528.106 102.338 527.636C102.338 527.167 102.276 526.759 102.151 526.415C102.029 526.07 101.849 525.803 101.611 525.614C101.376 525.424 101.086 525.33 100.741 525.33C100.401 525.33 100.111 525.422 99.8722 525.608C99.6335 525.794 99.4498 526.059 99.321 526.403C99.196 526.748 99.1335 527.159 99.1335 527.636ZM114.266 525.938L111.714 526.006C111.688 525.824 111.616 525.663 111.499 525.523C111.381 525.379 111.228 525.267 111.038 525.188C110.853 525.104 110.637 525.062 110.391 525.062C110.069 525.062 109.794 525.127 109.567 525.256C109.343 525.384 109.233 525.559 109.237 525.778C109.233 525.949 109.302 526.097 109.442 526.222C109.586 526.347 109.841 526.447 110.209 526.523L111.891 526.841C112.762 527.008 113.41 527.284 113.834 527.67C114.262 528.057 114.478 528.568 114.482 529.205C114.478 529.803 114.3 530.324 113.947 530.767C113.599 531.21 113.122 531.555 112.516 531.801C111.91 532.044 111.216 532.165 110.436 532.165C109.19 532.165 108.207 531.909 107.487 531.398C106.771 530.883 106.362 530.193 106.26 529.33L109.004 529.261C109.065 529.58 109.222 529.822 109.476 529.989C109.73 530.155 110.054 530.239 110.447 530.239C110.804 530.239 111.093 530.172 111.317 530.04C111.54 529.907 111.654 529.731 111.658 529.511C111.654 529.314 111.567 529.157 111.396 529.04C111.226 528.919 110.959 528.824 110.595 528.756L109.072 528.466C108.197 528.307 107.546 528.013 107.118 527.585C106.69 527.153 106.478 526.604 106.482 525.938C106.478 525.354 106.633 524.856 106.947 524.443C107.262 524.027 107.709 523.708 108.288 523.489C108.868 523.269 109.552 523.159 110.339 523.159C111.521 523.159 112.453 523.407 113.135 523.903C113.817 524.396 114.194 525.074 114.266 525.938ZM119.116 520.364L118.855 528.438H116.52L116.259 520.364H119.116ZM117.685 532.165C117.279 532.165 116.931 532.021 116.639 531.733C116.351 531.445 116.207 531.097 116.207 530.688C116.207 530.286 116.351 529.943 116.639 529.659C116.931 529.371 117.279 529.227 117.685 529.227C118.075 529.227 118.418 529.371 118.713 529.659C119.012 529.943 119.162 530.286 119.162 530.688C119.162 530.96 119.092 531.208 118.952 531.432C118.815 531.655 118.635 531.833 118.412 531.966C118.192 532.098 117.95 532.165 117.685 532.165ZM124.344 522.648V520.364H134.179V522.648H130.651V532H127.878V522.648H124.344ZM138.331 527.023V532H135.553V520.364H138.24V524.875H138.337C138.534 524.337 138.856 523.917 139.303 523.614C139.753 523.311 140.304 523.159 140.956 523.159C141.57 523.159 142.104 523.295 142.558 523.568C143.013 523.837 143.365 524.218 143.615 524.71C143.869 525.203 143.994 525.778 143.99 526.438V532H141.212V526.983C141.215 526.498 141.094 526.119 140.848 525.847C140.602 525.574 140.255 525.438 139.808 525.438C139.517 525.438 139.259 525.502 139.036 525.631C138.816 525.756 138.643 525.936 138.518 526.17C138.397 526.405 138.335 526.689 138.331 527.023ZM149.804 532.165C148.891 532.165 148.103 531.985 147.44 531.625C146.781 531.261 146.274 530.744 145.918 530.074C145.565 529.4 145.389 528.598 145.389 527.67C145.389 526.769 145.567 525.981 145.923 525.307C146.279 524.629 146.781 524.102 147.429 523.727C148.077 523.348 148.84 523.159 149.719 523.159C150.34 523.159 150.908 523.256 151.423 523.449C151.938 523.642 152.384 523.928 152.759 524.307C153.134 524.686 153.425 525.153 153.634 525.71C153.842 526.263 153.946 526.898 153.946 527.614V528.307H146.361V526.693H151.361C151.357 526.398 151.287 526.134 151.151 525.903C151.014 525.672 150.827 525.492 150.588 525.364C150.353 525.231 150.082 525.165 149.776 525.165C149.465 525.165 149.187 525.235 148.94 525.375C148.694 525.511 148.499 525.699 148.355 525.938C148.211 526.172 148.135 526.439 148.128 526.739V528.381C148.128 528.737 148.198 529.049 148.338 529.318C148.478 529.583 148.677 529.79 148.935 529.938C149.192 530.085 149.499 530.159 149.855 530.159C150.101 530.159 150.325 530.125 150.526 530.057C150.726 529.989 150.899 529.888 151.043 529.756C151.187 529.623 151.295 529.46 151.366 529.267L153.918 529.341C153.812 529.913 153.579 530.411 153.219 530.835C152.863 531.256 152.395 531.583 151.815 531.818C151.236 532.049 150.565 532.165 149.804 532.165ZM158.803 535.273V523.273H161.553V524.767H161.638C161.751 524.502 161.912 524.246 162.121 524C162.333 523.754 162.602 523.553 162.928 523.398C163.257 523.239 163.651 523.159 164.109 523.159C164.715 523.159 165.282 523.318 165.808 523.636C166.339 523.955 166.767 524.445 167.092 525.108C167.418 525.771 167.581 526.616 167.581 527.642C167.581 528.631 167.424 529.458 167.109 530.125C166.799 530.792 166.378 531.292 165.848 531.625C165.321 531.958 164.736 532.125 164.092 532.125C163.653 532.125 163.272 532.053 162.95 531.909C162.628 531.765 162.357 531.576 162.138 531.341C161.922 531.106 161.755 530.854 161.638 530.585H161.581V535.273H158.803ZM161.524 527.636C161.524 528.106 161.587 528.515 161.712 528.864C161.84 529.212 162.024 529.483 162.263 529.676C162.505 529.866 162.795 529.96 163.132 529.96C163.473 529.96 163.763 529.866 164.001 529.676C164.24 529.483 164.42 529.212 164.541 528.864C164.666 528.515 164.729 528.106 164.729 527.636C164.729 527.167 164.666 526.759 164.541 526.415C164.42 526.07 164.24 525.803 164.001 525.614C163.767 525.424 163.477 525.33 163.132 525.33C162.791 525.33 162.501 525.422 162.263 525.608C162.024 525.794 161.84 526.059 161.712 526.403C161.587 526.748 161.524 527.159 161.524 527.636ZM171.497 532.148C170.94 532.148 170.446 532.055 170.014 531.869C169.586 531.68 169.247 531.396 168.997 531.017C168.751 530.634 168.628 530.155 168.628 529.58C168.628 529.095 168.713 528.686 168.884 528.352C169.054 528.019 169.289 527.748 169.588 527.54C169.887 527.331 170.232 527.174 170.622 527.068C171.012 526.958 171.429 526.884 171.872 526.847C172.368 526.801 172.768 526.754 173.071 526.705C173.374 526.652 173.594 526.578 173.73 526.483C173.87 526.384 173.94 526.246 173.94 526.068V526.04C173.94 525.748 173.84 525.523 173.639 525.364C173.438 525.205 173.168 525.125 172.827 525.125C172.459 525.125 172.164 525.205 171.94 525.364C171.717 525.523 171.575 525.742 171.514 526.023L168.952 525.932C169.027 525.402 169.223 524.928 169.537 524.511C169.855 524.091 170.291 523.761 170.844 523.523C171.401 523.28 172.069 523.159 172.849 523.159C173.406 523.159 173.92 523.225 174.389 523.358C174.859 523.487 175.268 523.676 175.616 523.926C175.965 524.172 176.234 524.475 176.423 524.835C176.616 525.195 176.713 525.606 176.713 526.068V532H174.099V530.784H174.031C173.876 531.08 173.677 531.33 173.435 531.534C173.196 531.739 172.914 531.892 172.588 531.994C172.266 532.097 171.902 532.148 171.497 532.148ZM172.355 530.33C172.654 530.33 172.923 530.269 173.162 530.148C173.404 530.027 173.598 529.86 173.741 529.648C173.885 529.432 173.957 529.182 173.957 528.898V528.068C173.878 528.11 173.781 528.148 173.668 528.182C173.558 528.216 173.437 528.248 173.304 528.278C173.171 528.309 173.035 528.335 172.895 528.358C172.755 528.381 172.62 528.402 172.491 528.42C172.23 528.462 172.007 528.527 171.821 528.614C171.639 528.701 171.499 528.814 171.401 528.955C171.306 529.091 171.259 529.254 171.259 529.443C171.259 529.731 171.361 529.951 171.565 530.102C171.774 530.254 172.037 530.33 172.355 530.33ZM182.48 535.455C181.651 535.455 180.94 535.339 180.349 535.108C179.759 534.877 179.295 534.561 178.957 534.159C178.62 533.758 178.418 533.303 178.349 532.795L180.98 532.648C181.029 532.826 181.12 532.981 181.253 533.114C181.389 533.246 181.565 533.348 181.781 533.42C182.001 533.492 182.259 533.528 182.554 533.528C183.02 533.528 183.404 533.415 183.707 533.188C184.014 532.964 184.168 532.572 184.168 532.011V530.477H184.071C183.961 530.746 183.795 530.987 183.571 531.199C183.348 531.411 183.069 531.578 182.736 531.699C182.406 531.82 182.027 531.881 181.599 531.881C180.963 531.881 180.38 531.733 179.849 531.438C179.323 531.138 178.901 530.676 178.582 530.051C178.268 529.422 178.111 528.614 178.111 527.625C178.111 526.606 178.274 525.767 178.599 525.108C178.925 524.445 179.351 523.955 179.878 523.636C180.408 523.318 180.978 523.159 181.588 523.159C182.046 523.159 182.438 523.239 182.764 523.398C183.094 523.553 183.365 523.754 183.577 524C183.789 524.246 183.95 524.502 184.06 524.767H184.139V523.273H186.906V532.034C186.906 532.773 186.721 533.396 186.349 533.903C185.978 534.411 185.459 534.795 184.793 535.057C184.126 535.322 183.355 535.455 182.48 535.455ZM182.565 529.858C182.902 529.858 183.19 529.769 183.429 529.591C183.668 529.413 183.851 529.157 183.98 528.824C184.109 528.491 184.173 528.091 184.173 527.625C184.173 527.152 184.109 526.744 183.98 526.403C183.855 526.059 183.671 525.794 183.429 525.608C183.19 525.422 182.902 525.33 182.565 525.33C182.221 525.33 181.929 525.424 181.69 525.614C181.452 525.803 181.27 526.07 181.145 526.415C181.024 526.756 180.963 527.159 180.963 527.625C180.963 528.091 181.026 528.491 181.151 528.824C181.276 529.157 181.455 529.413 181.69 529.591C181.929 529.769 182.221 529.858 182.565 529.858ZM192.757 532.165C191.844 532.165 191.056 531.985 190.393 531.625C189.734 531.261 189.227 530.744 188.871 530.074C188.518 529.4 188.342 528.598 188.342 527.67C188.342 526.769 188.52 525.981 188.876 525.307C189.232 524.629 189.734 524.102 190.382 523.727C191.03 523.348 191.793 523.159 192.672 523.159C193.293 523.159 193.861 523.256 194.376 523.449C194.892 523.642 195.337 523.928 195.712 524.307C196.087 524.686 196.378 525.153 196.587 525.71C196.795 526.263 196.899 526.898 196.899 527.614V528.307H189.314V526.693H194.314C194.31 526.398 194.24 526.134 194.104 525.903C193.967 525.672 193.78 525.492 193.541 525.364C193.306 525.231 193.036 525.165 192.729 525.165C192.418 525.165 192.14 525.235 191.893 525.375C191.647 525.511 191.452 525.699 191.308 525.938C191.164 526.172 191.089 526.439 191.081 526.739V528.381C191.081 528.737 191.151 529.049 191.291 529.318C191.431 529.583 191.63 529.79 191.888 529.938C192.145 530.085 192.452 530.159 192.808 530.159C193.054 530.159 193.278 530.125 193.479 530.057C193.679 529.989 193.852 529.888 193.996 529.756C194.14 529.623 194.248 529.46 194.32 529.267L196.871 529.341C196.765 529.913 196.532 530.411 196.172 530.835C195.816 531.256 195.348 531.583 194.768 531.818C194.189 532.049 193.518 532.165 192.757 532.165ZM203.455 535.273C203.121 535.273 202.807 535.246 202.511 535.193C202.216 535.144 201.962 535.078 201.75 534.994L202.364 532.977C202.636 533.068 202.883 533.121 203.102 533.136C203.326 533.152 203.517 533.116 203.676 533.028C203.839 532.945 203.964 532.795 204.051 532.58L204.159 532.318L201.057 523.273H203.966L205.574 529.5H205.665L207.295 523.273H210.222L206.932 532.835C206.773 533.313 206.547 533.733 206.256 534.097C205.968 534.464 205.595 534.752 205.136 534.96C204.682 535.169 204.121 535.273 203.455 535.273ZM215.08 532.165C214.163 532.165 213.375 531.977 212.716 531.602C212.061 531.223 211.555 530.697 211.199 530.023C210.847 529.345 210.67 528.559 210.67 527.665C210.67 526.767 210.847 525.981 211.199 525.307C211.555 524.629 212.061 524.102 212.716 523.727C213.375 523.348 214.163 523.159 215.08 523.159C215.996 523.159 216.782 523.348 217.438 523.727C218.097 524.102 218.602 524.629 218.955 525.307C219.311 525.981 219.489 526.767 219.489 527.665C219.489 528.559 219.311 529.345 218.955 530.023C218.602 530.697 218.097 531.223 217.438 531.602C216.782 531.977 215.996 532.165 215.08 532.165ZM215.097 530.068C215.43 530.068 215.712 529.966 215.943 529.761C216.174 529.557 216.35 529.273 216.472 528.909C216.597 528.545 216.659 528.125 216.659 527.648C216.659 527.163 216.597 526.739 216.472 526.375C216.35 526.011 216.174 525.727 215.943 525.523C215.712 525.318 215.43 525.216 215.097 525.216C214.752 525.216 214.46 525.318 214.222 525.523C213.987 525.727 213.807 526.011 213.682 526.375C213.561 526.739 213.5 527.163 213.5 527.648C213.5 528.125 213.561 528.545 213.682 528.909C213.807 529.273 213.987 529.557 214.222 529.761C214.46 529.966 214.752 530.068 215.097 530.068ZM226.543 528.233V523.273H229.315V532H226.668V530.375H226.577C226.384 530.909 226.054 531.333 225.588 531.648C225.126 531.958 224.567 532.114 223.912 532.114C223.317 532.114 222.795 531.977 222.344 531.705C221.893 531.432 221.543 531.051 221.293 530.562C221.043 530.07 220.916 529.494 220.912 528.835V523.273H223.69V528.29C223.694 528.763 223.819 529.136 224.065 529.409C224.312 529.682 224.647 529.818 225.071 529.818C225.348 529.818 225.596 529.758 225.815 529.636C226.039 529.511 226.215 529.331 226.344 529.097C226.476 528.858 226.543 528.57 226.543 528.233ZM236.982 532.148C236.425 532.148 235.93 532.055 235.499 531.869C235.071 531.68 234.732 531.396 234.482 531.017C234.235 530.634 234.112 530.155 234.112 529.58C234.112 529.095 234.197 528.686 234.368 528.352C234.538 528.019 234.773 527.748 235.072 527.54C235.372 527.331 235.716 527.174 236.107 527.068C236.497 526.958 236.913 526.884 237.357 526.847C237.853 526.801 238.252 526.754 238.555 526.705C238.858 526.652 239.078 526.578 239.214 526.483C239.355 526.384 239.425 526.246 239.425 526.068V526.04C239.425 525.748 239.324 525.523 239.124 525.364C238.923 525.205 238.652 525.125 238.311 525.125C237.944 525.125 237.648 525.205 237.425 525.364C237.201 525.523 237.059 525.742 236.999 526.023L234.436 525.932C234.512 525.402 234.707 524.928 235.021 524.511C235.339 524.091 235.775 523.761 236.328 523.523C236.885 523.28 237.554 523.159 238.334 523.159C238.891 523.159 239.404 523.225 239.874 523.358C240.343 523.487 240.752 523.676 241.101 523.926C241.449 524.172 241.718 524.475 241.908 524.835C242.101 525.195 242.197 525.606 242.197 526.068V532H239.584V530.784H239.516C239.36 531.08 239.161 531.33 238.919 531.534C238.68 531.739 238.398 531.892 238.072 531.994C237.75 532.097 237.387 532.148 236.982 532.148ZM237.839 530.33C238.139 530.33 238.408 530.269 238.646 530.148C238.889 530.027 239.082 529.86 239.226 529.648C239.37 529.432 239.442 529.182 239.442 528.898V528.068C239.362 528.11 239.266 528.148 239.152 528.182C239.042 528.216 238.921 528.248 238.788 528.278C238.656 528.309 238.519 528.335 238.379 528.358C238.239 528.381 238.105 528.402 237.976 528.42C237.714 528.462 237.491 528.527 237.305 528.614C237.124 528.701 236.983 528.814 236.885 528.955C236.79 529.091 236.743 529.254 236.743 529.443C236.743 529.731 236.845 529.951 237.05 530.102C237.258 530.254 237.521 530.33 237.839 530.33ZM243.896 532V523.273H246.595V524.864H246.686C246.845 524.288 247.105 523.86 247.464 523.58C247.824 523.295 248.243 523.153 248.72 523.153C248.849 523.153 248.982 523.163 249.118 523.182C249.254 523.197 249.381 523.222 249.499 523.256V525.67C249.366 525.625 249.192 525.589 248.976 525.562C248.764 525.536 248.574 525.523 248.408 525.523C248.078 525.523 247.781 525.597 247.516 525.744C247.254 525.888 247.048 526.091 246.896 526.352C246.749 526.61 246.675 526.913 246.675 527.261V532H243.896ZM254.257 532.165C253.344 532.165 252.556 531.985 251.893 531.625C251.234 531.261 250.727 530.744 250.371 530.074C250.018 529.4 249.842 528.598 249.842 527.67C249.842 526.769 250.02 525.981 250.376 525.307C250.732 524.629 251.234 524.102 251.882 523.727C252.53 523.348 253.293 523.159 254.172 523.159C254.793 523.159 255.361 523.256 255.876 523.449C256.392 523.642 256.837 523.928 257.212 524.307C257.587 524.686 257.878 525.153 258.087 525.71C258.295 526.263 258.399 526.898 258.399 527.614V528.307H250.814V526.693H255.814C255.81 526.398 255.74 526.134 255.604 525.903C255.467 525.672 255.28 525.492 255.041 525.364C254.806 525.231 254.536 525.165 254.229 525.165C253.918 525.165 253.64 525.235 253.393 525.375C253.147 525.511 252.952 525.699 252.808 525.938C252.664 526.172 252.589 526.439 252.581 526.739V528.381C252.581 528.737 252.651 529.049 252.791 529.318C252.931 529.583 253.13 529.79 253.388 529.938C253.645 530.085 253.952 530.159 254.308 530.159C254.554 530.159 254.778 530.125 254.979 530.057C255.179 529.989 255.352 529.888 255.496 529.756C255.64 529.623 255.748 529.46 255.82 529.267L258.371 529.341C258.265 529.913 258.032 530.411 257.672 530.835C257.316 531.256 256.848 531.583 256.268 531.818C255.689 532.049 255.018 532.165 254.257 532.165ZM266.034 520.364V532H263.256V520.364H266.034ZM271.876 532.165C270.96 532.165 270.172 531.977 269.513 531.602C268.857 531.223 268.352 530.697 267.996 530.023C267.643 529.345 267.467 528.559 267.467 527.665C267.467 526.767 267.643 525.981 267.996 525.307C268.352 524.629 268.857 524.102 269.513 523.727C270.172 523.348 270.96 523.159 271.876 523.159C272.793 523.159 273.579 523.348 274.234 523.727C274.893 524.102 275.399 524.629 275.751 525.307C276.107 525.981 276.286 526.767 276.286 527.665C276.286 528.559 276.107 529.345 275.751 530.023C275.399 530.697 274.893 531.223 274.234 531.602C273.579 531.977 272.793 532.165 271.876 532.165ZM271.893 530.068C272.227 530.068 272.509 529.966 272.74 529.761C272.971 529.557 273.147 529.273 273.268 528.909C273.393 528.545 273.456 528.125 273.456 527.648C273.456 527.163 273.393 526.739 273.268 526.375C273.147 526.011 272.971 525.727 272.74 525.523C272.509 525.318 272.227 525.216 271.893 525.216C271.549 525.216 271.257 525.318 271.018 525.523C270.784 525.727 270.604 526.011 270.479 526.375C270.357 526.739 270.297 527.163 270.297 527.648C270.297 528.125 270.357 528.545 270.479 528.909C270.604 529.273 270.784 529.557 271.018 529.761C271.257 529.966 271.549 530.068 271.893 530.068ZM281.783 532.165C280.866 532.165 280.078 531.977 279.419 531.602C278.764 531.223 278.258 530.697 277.902 530.023C277.55 529.345 277.374 528.559 277.374 527.665C277.374 526.767 277.55 525.981 277.902 525.307C278.258 524.629 278.764 524.102 279.419 523.727C280.078 523.348 280.866 523.159 281.783 523.159C282.699 523.159 283.485 523.348 284.141 523.727C284.8 524.102 285.305 524.629 285.658 525.307C286.014 525.981 286.192 526.767 286.192 527.665C286.192 528.559 286.014 529.345 285.658 530.023C285.305 530.697 284.8 531.223 284.141 531.602C283.485 531.977 282.699 532.165 281.783 532.165ZM281.8 530.068C282.133 530.068 282.415 529.966 282.646 529.761C282.877 529.557 283.054 529.273 283.175 528.909C283.3 528.545 283.362 528.125 283.362 527.648C283.362 527.163 283.3 526.739 283.175 526.375C283.054 526.011 282.877 525.727 282.646 525.523C282.415 525.318 282.133 525.216 281.8 525.216C281.455 525.216 281.163 525.318 280.925 525.523C280.69 525.727 280.51 526.011 280.385 526.375C280.264 526.739 280.203 527.163 280.203 527.648C280.203 528.125 280.264 528.545 280.385 528.909C280.51 529.273 280.69 529.557 280.925 529.761C281.163 529.966 281.455 530.068 281.8 530.068ZM290.121 529.71L290.132 526.398H290.518L292.973 523.273H296.121L292.473 527.75H291.74L290.121 529.71ZM287.615 532V520.364H290.393V532H287.615ZM293.036 532L290.751 528.375L292.581 526.403L296.246 532H293.036ZM297.115 532V523.273H299.893V532H297.115ZM298.507 522.256C298.117 522.256 297.782 522.127 297.501 521.869C297.221 521.608 297.081 521.294 297.081 520.926C297.081 520.562 297.221 520.252 297.501 519.994C297.782 519.733 298.117 519.602 298.507 519.602C298.901 519.602 299.236 519.733 299.513 519.994C299.793 520.252 299.933 520.562 299.933 520.926C299.933 521.294 299.793 521.608 299.513 521.869C299.236 522.127 298.901 522.256 298.507 522.256ZM304.44 527.023V532H301.662V523.273H304.304V524.875H304.401C304.594 524.341 304.923 523.922 305.389 523.619C305.855 523.312 306.41 523.159 307.054 523.159C307.668 523.159 308.2 523.297 308.651 523.574C309.105 523.847 309.457 524.229 309.707 524.722C309.961 525.21 310.086 525.782 310.082 526.438V532H307.304V526.983C307.308 526.498 307.185 526.119 306.935 525.847C306.688 525.574 306.346 525.438 305.906 525.438C305.615 525.438 305.357 525.502 305.134 525.631C304.914 525.756 304.743 525.936 304.622 526.17C304.505 526.405 304.444 526.689 304.44 527.023ZM315.871 535.455C315.041 535.455 314.331 535.339 313.74 535.108C313.149 534.877 312.685 534.561 312.348 534.159C312.011 533.758 311.808 533.303 311.74 532.795L314.371 532.648C314.42 532.826 314.511 532.981 314.643 533.114C314.78 533.246 314.956 533.348 315.172 533.42C315.392 533.492 315.649 533.528 315.945 533.528C316.411 533.528 316.795 533.415 317.098 533.188C317.405 532.964 317.558 532.572 317.558 532.011V530.477H317.462C317.352 530.746 317.185 530.987 316.962 531.199C316.738 531.411 316.46 531.578 316.126 531.699C315.797 531.82 315.418 531.881 314.99 531.881C314.354 531.881 313.77 531.733 313.24 531.438C312.714 531.138 312.291 530.676 311.973 530.051C311.659 529.422 311.501 528.614 311.501 527.625C311.501 526.606 311.664 525.767 311.99 525.108C312.316 524.445 312.742 523.955 313.268 523.636C313.799 523.318 314.369 523.159 314.979 523.159C315.437 523.159 315.829 523.239 316.155 523.398C316.484 523.553 316.755 523.754 316.967 524C317.179 524.246 317.34 524.502 317.45 524.767H317.53V523.273H320.297V532.034C320.297 532.773 320.111 533.396 319.74 533.903C319.369 534.411 318.85 534.795 318.183 535.057C317.517 535.322 316.746 535.455 315.871 535.455ZM315.956 529.858C316.293 529.858 316.581 529.769 316.82 529.591C317.058 529.413 317.242 529.157 317.371 528.824C317.5 528.491 317.564 528.091 317.564 527.625C317.564 527.152 317.5 526.744 317.371 526.403C317.246 526.059 317.062 525.794 316.82 525.608C316.581 525.422 316.293 525.33 315.956 525.33C315.611 525.33 315.32 525.424 315.081 525.614C314.842 525.803 314.661 526.07 314.536 526.415C314.414 526.756 314.354 527.159 314.354 527.625C314.354 528.091 314.416 528.491 314.541 528.824C314.666 529.157 314.846 529.413 315.081 529.591C315.32 529.769 315.611 529.858 315.956 529.858ZM330.466 523.273V525.318H324.852V523.273H330.466ZM326.023 532V522.83C326.023 522.155 326.15 521.597 326.403 521.153C326.657 520.706 327.009 520.373 327.46 520.153C327.911 519.93 328.432 519.818 329.023 519.818C329.409 519.818 329.773 519.848 330.114 519.909C330.458 519.966 330.714 520.017 330.881 520.062L330.438 522.097C330.335 522.062 330.21 522.034 330.062 522.011C329.919 521.989 329.782 521.977 329.653 521.977C329.328 521.977 329.104 522.049 328.983 522.193C328.862 522.337 328.801 522.534 328.801 522.784V532H326.023ZM335.595 532.165C334.679 532.165 333.891 531.977 333.232 531.602C332.576 531.223 332.071 530.697 331.714 530.023C331.362 529.345 331.186 528.559 331.186 527.665C331.186 526.767 331.362 525.981 331.714 525.307C332.071 524.629 332.576 524.102 333.232 523.727C333.891 523.348 334.679 523.159 335.595 523.159C336.512 523.159 337.298 523.348 337.953 523.727C338.612 524.102 339.118 524.629 339.47 525.307C339.826 525.981 340.004 526.767 340.004 527.665C340.004 528.559 339.826 529.345 339.47 530.023C339.118 530.697 338.612 531.223 337.953 531.602C337.298 531.977 336.512 532.165 335.595 532.165ZM335.612 530.068C335.946 530.068 336.228 529.966 336.459 529.761C336.69 529.557 336.866 529.273 336.987 528.909C337.112 528.545 337.175 528.125 337.175 527.648C337.175 527.163 337.112 526.739 336.987 526.375C336.866 526.011 336.69 525.727 336.459 525.523C336.228 525.318 335.946 525.216 335.612 525.216C335.268 525.216 334.976 525.318 334.737 525.523C334.502 525.727 334.322 526.011 334.197 526.375C334.076 526.739 334.016 527.163 334.016 527.648C334.016 528.125 334.076 528.545 334.197 528.909C334.322 529.273 334.502 529.557 334.737 529.761C334.976 529.966 335.268 530.068 335.612 530.068ZM341.428 532V523.273H344.126V524.864H344.217C344.376 524.288 344.636 523.86 344.996 523.58C345.356 523.295 345.774 523.153 346.251 523.153C346.38 523.153 346.513 523.163 346.649 523.182C346.786 523.197 346.912 523.222 347.03 523.256V525.67C346.897 525.625 346.723 525.589 346.507 525.562C346.295 525.536 346.106 525.523 345.939 525.523C345.609 525.523 345.312 525.597 345.047 525.744C344.786 525.888 344.579 526.091 344.428 526.352C344.28 526.61 344.206 526.913 344.206 527.261V532H341.428ZM354.787 532.125C354.143 532.125 353.558 531.958 353.031 531.625C352.505 531.292 352.084 530.792 351.77 530.125C351.455 529.458 351.298 528.631 351.298 527.642C351.298 526.616 351.461 525.771 351.787 525.108C352.113 524.445 352.539 523.955 353.065 523.636C353.596 523.318 354.166 523.159 354.776 523.159C355.234 523.159 355.626 523.239 355.952 523.398C356.277 523.553 356.546 523.754 356.759 524C356.971 524.246 357.132 524.502 357.241 524.767H357.298V520.364H360.077V532H357.327V530.585H357.241C357.124 530.854 356.957 531.106 356.741 531.341C356.526 531.576 356.255 531.765 355.929 531.909C355.607 532.053 355.226 532.125 354.787 532.125ZM355.753 529.96C356.09 529.96 356.378 529.866 356.616 529.676C356.855 529.483 357.039 529.212 357.168 528.864C357.296 528.515 357.361 528.106 357.361 527.636C357.361 527.159 357.296 526.748 357.168 526.403C357.043 526.059 356.859 525.794 356.616 525.608C356.378 525.422 356.09 525.33 355.753 525.33C355.408 525.33 355.116 525.424 354.878 525.614C354.639 525.803 354.457 526.07 354.332 526.415C354.211 526.759 354.151 527.167 354.151 527.636C354.151 528.106 354.213 528.515 354.338 528.864C354.463 529.212 354.643 529.483 354.878 529.676C355.116 529.866 355.408 529.96 355.753 529.96ZM365.908 532.165C364.991 532.165 364.203 531.977 363.544 531.602C362.889 531.223 362.383 530.697 362.027 530.023C361.675 529.345 361.499 528.559 361.499 527.665C361.499 526.767 361.675 525.981 362.027 525.307C362.383 524.629 362.889 524.102 363.544 523.727C364.203 523.348 364.991 523.159 365.908 523.159C366.824 523.159 367.61 523.348 368.266 523.727C368.925 524.102 369.43 524.629 369.783 525.307C370.139 525.981 370.317 526.767 370.317 527.665C370.317 528.559 370.139 529.345 369.783 530.023C369.43 530.697 368.925 531.223 368.266 531.602C367.61 531.977 366.824 532.165 365.908 532.165ZM365.925 530.068C366.258 530.068 366.54 529.966 366.771 529.761C367.002 529.557 367.179 529.273 367.3 528.909C367.425 528.545 367.487 528.125 367.487 527.648C367.487 527.163 367.425 526.739 367.3 526.375C367.179 526.011 367.002 525.727 366.771 525.523C366.54 525.318 366.258 525.216 365.925 525.216C365.58 525.216 365.288 525.318 365.05 525.523C364.815 525.727 364.635 526.011 364.51 526.375C364.389 526.739 364.328 527.163 364.328 527.648C364.328 528.125 364.389 528.545 364.51 528.909C364.635 529.273 364.815 529.557 365.05 529.761C365.288 529.966 365.58 530.068 365.925 530.068ZM375.82 532.165C374.907 532.165 374.119 531.985 373.456 531.625C372.797 531.261 372.289 530.744 371.933 530.074C371.581 529.4 371.405 528.598 371.405 527.67C371.405 526.769 371.583 525.981 371.939 525.307C372.295 524.629 372.797 524.102 373.445 523.727C374.092 523.348 374.856 523.159 375.734 523.159C376.356 523.159 376.924 523.256 377.439 523.449C377.954 523.642 378.399 523.928 378.774 524.307C379.149 524.686 379.441 525.153 379.649 525.71C379.857 526.263 379.962 526.898 379.962 527.614V528.307H372.376V526.693H377.376C377.373 526.398 377.303 526.134 377.166 525.903C377.03 525.672 376.842 525.492 376.604 525.364C376.369 525.231 376.098 525.165 375.791 525.165C375.481 525.165 375.202 525.235 374.956 525.375C374.71 525.511 374.515 525.699 374.371 525.938C374.227 526.172 374.151 526.439 374.143 526.739V528.381C374.143 528.737 374.214 529.049 374.354 529.318C374.494 529.583 374.693 529.79 374.95 529.938C375.208 530.085 375.515 530.159 375.871 530.159C376.117 530.159 376.34 530.125 376.541 530.057C376.742 529.989 376.914 529.888 377.058 529.756C377.202 529.623 377.31 529.46 377.382 529.267L379.933 529.341C379.827 529.913 379.594 530.411 379.234 530.835C378.878 531.256 378.411 531.583 377.831 531.818C377.251 532.049 376.581 532.165 375.82 532.165ZM389 525.938L386.449 526.006C386.422 525.824 386.35 525.663 386.233 525.523C386.116 525.379 385.962 525.267 385.773 525.188C385.587 525.104 385.371 525.062 385.125 525.062C384.803 525.062 384.528 525.127 384.301 525.256C384.078 525.384 383.968 525.559 383.972 525.778C383.968 525.949 384.036 526.097 384.176 526.222C384.32 526.347 384.576 526.447 384.943 526.523L386.625 526.841C387.496 527.008 388.144 527.284 388.568 527.67C388.996 528.057 389.212 528.568 389.216 529.205C389.212 529.803 389.034 530.324 388.682 530.767C388.333 531.21 387.856 531.555 387.25 531.801C386.644 532.044 385.951 532.165 385.17 532.165C383.924 532.165 382.941 531.909 382.222 531.398C381.506 530.883 381.097 530.193 380.994 529.33L383.739 529.261C383.799 529.58 383.956 529.822 384.21 529.989C384.464 530.155 384.788 530.239 385.182 530.239C385.538 530.239 385.828 530.172 386.051 530.04C386.275 529.907 386.388 529.731 386.392 529.511C386.388 529.314 386.301 529.157 386.131 529.04C385.96 528.919 385.693 528.824 385.33 528.756L383.807 528.466C382.932 528.307 382.28 528.013 381.852 527.585C381.424 527.153 381.212 526.604 381.216 525.938C381.212 525.354 381.367 524.856 381.682 524.443C381.996 524.027 382.443 523.708 383.023 523.489C383.602 523.269 384.286 523.159 385.074 523.159C386.256 523.159 387.188 523.407 387.869 523.903C388.551 524.396 388.928 525.074 389 525.938ZM396.8 527.023V532H394.021V523.273H396.663V524.875H396.76C396.953 524.341 397.283 523.922 397.749 523.619C398.214 523.312 398.769 523.159 399.413 523.159C400.027 523.159 400.559 523.297 401.01 523.574C401.464 523.847 401.817 524.229 402.067 524.722C402.321 525.21 402.446 525.782 402.442 526.438V532H399.663V526.983C399.667 526.498 399.544 526.119 399.294 525.847C399.048 525.574 398.705 525.438 398.266 525.438C397.974 525.438 397.716 525.502 397.493 525.631C397.273 525.756 397.103 525.936 396.982 526.17C396.864 526.405 396.804 526.689 396.8 527.023ZM408.236 532.165C407.319 532.165 406.531 531.977 405.872 531.602C405.217 531.223 404.711 530.697 404.355 530.023C404.003 529.345 403.827 528.559 403.827 527.665C403.827 526.767 404.003 525.981 404.355 525.307C404.711 524.629 405.217 524.102 405.872 523.727C406.531 523.348 407.319 523.159 408.236 523.159C409.152 523.159 409.938 523.348 410.594 523.727C411.253 524.102 411.759 524.629 412.111 525.307C412.467 525.981 412.645 526.767 412.645 527.665C412.645 528.559 412.467 529.345 412.111 530.023C411.759 530.697 411.253 531.223 410.594 531.602C409.938 531.977 409.152 532.165 408.236 532.165ZM408.253 530.068C408.586 530.068 408.868 529.966 409.099 529.761C409.33 529.557 409.507 529.273 409.628 528.909C409.753 528.545 409.815 528.125 409.815 527.648C409.815 527.163 409.753 526.739 409.628 526.375C409.507 526.011 409.33 525.727 409.099 525.523C408.868 525.318 408.586 525.216 408.253 525.216C407.908 525.216 407.616 525.318 407.378 525.523C407.143 525.727 406.963 526.011 406.838 526.375C406.717 526.739 406.656 527.163 406.656 527.648C406.656 528.125 406.717 528.545 406.838 528.909C406.963 529.273 407.143 529.557 407.378 529.761C407.616 529.966 407.908 530.068 408.253 530.068ZM418.994 523.273V525.318H413.489V523.273H418.994ZM414.642 521.182H417.42V529.256C417.42 529.426 417.447 529.564 417.5 529.67C417.557 529.773 417.638 529.847 417.744 529.892C417.85 529.934 417.977 529.955 418.125 529.955C418.231 529.955 418.343 529.945 418.46 529.926C418.581 529.903 418.672 529.884 418.733 529.869L419.153 531.875C419.021 531.913 418.833 531.96 418.591 532.017C418.352 532.074 418.066 532.11 417.733 532.125C417.081 532.155 416.523 532.08 416.057 531.898C415.595 531.712 415.241 531.424 414.994 531.034C414.752 530.644 414.634 530.153 414.642 529.562V521.182ZM427.929 532.165C427.016 532.165 426.228 531.985 425.565 531.625C424.906 531.261 424.399 530.744 424.043 530.074C423.69 529.4 423.514 528.598 423.514 527.67C423.514 526.769 423.692 525.981 424.048 525.307C424.404 524.629 424.906 524.102 425.554 523.727C426.202 523.348 426.965 523.159 427.844 523.159C428.465 523.159 429.033 523.256 429.548 523.449C430.063 523.642 430.509 523.928 430.884 524.307C431.259 524.686 431.55 525.153 431.759 525.71C431.967 526.263 432.071 526.898 432.071 527.614V528.307H424.486V526.693H429.486C429.482 526.398 429.412 526.134 429.276 525.903C429.139 525.672 428.952 525.492 428.713 525.364C428.478 525.231 428.207 525.165 427.901 525.165C427.59 525.165 427.312 525.235 427.065 525.375C426.819 525.511 426.624 525.699 426.48 525.938C426.336 526.172 426.26 526.439 426.253 526.739V528.381C426.253 528.737 426.323 529.049 426.463 529.318C426.603 529.583 426.802 529.79 427.06 529.938C427.317 530.085 427.624 530.159 427.98 530.159C428.226 530.159 428.45 530.125 428.651 530.057C428.851 529.989 429.024 529.888 429.168 529.756C429.312 529.623 429.42 529.46 429.491 529.267L432.043 529.341C431.937 529.913 431.704 530.411 431.344 530.835C430.988 531.256 430.52 531.583 429.94 531.818C429.361 532.049 428.69 532.165 427.929 532.165ZM435.729 523.273L437.166 526.148L438.655 523.273H441.456L439.018 527.636L441.547 532H438.768L437.166 529.102L435.604 532H432.786L435.32 527.636L432.911 523.273H435.729ZM442.724 532V523.273H445.503V532H442.724ZM444.116 522.256C443.726 522.256 443.391 522.127 443.111 521.869C442.83 521.608 442.69 521.294 442.69 520.926C442.69 520.562 442.83 520.252 443.111 519.994C443.391 519.733 443.726 519.602 444.116 519.602C444.51 519.602 444.846 519.733 445.122 519.994C445.402 520.252 445.543 520.562 445.543 520.926C445.543 521.294 445.402 521.608 445.122 521.869C444.846 522.127 444.51 522.256 444.116 522.256ZM454.891 525.938L452.339 526.006C452.313 525.824 452.241 525.663 452.124 525.523C452.006 525.379 451.853 525.267 451.663 525.188C451.478 525.104 451.262 525.062 451.016 525.062C450.694 525.062 450.419 525.127 450.192 525.256C449.968 525.384 449.858 525.559 449.862 525.778C449.858 525.949 449.927 526.097 450.067 526.222C450.211 526.347 450.466 526.447 450.834 526.523L452.516 526.841C453.387 527.008 454.035 527.284 454.459 527.67C454.887 528.057 455.103 528.568 455.107 529.205C455.103 529.803 454.925 530.324 454.572 530.767C454.224 531.21 453.747 531.555 453.141 531.801C452.535 532.044 451.841 532.165 451.061 532.165C449.815 532.165 448.832 531.909 448.112 531.398C447.396 530.883 446.987 530.193 446.885 529.33L449.629 529.261C449.69 529.58 449.847 529.822 450.101 529.989C450.355 530.155 450.679 530.239 451.072 530.239C451.429 530.239 451.718 530.172 451.942 530.04C452.165 529.907 452.279 529.731 452.283 529.511C452.279 529.314 452.192 529.157 452.021 529.04C451.851 528.919 451.584 528.824 451.22 528.756L449.697 528.466C448.822 528.307 448.171 528.013 447.743 527.585C447.315 527.153 447.103 526.604 447.107 525.938C447.103 525.354 447.258 524.856 447.572 524.443C447.887 524.027 448.334 523.708 448.913 523.489C449.493 523.269 450.177 523.159 450.964 523.159C452.146 523.159 453.078 523.407 453.76 523.903C454.442 524.396 454.819 525.074 454.891 525.938ZM461.401 523.273V525.318H455.895V523.273H461.401ZM457.048 521.182H459.827V529.256C459.827 529.426 459.853 529.564 459.906 529.67C459.963 529.773 460.045 529.847 460.151 529.892C460.257 529.934 460.384 529.955 460.531 529.955C460.637 529.955 460.749 529.945 460.866 529.926C460.988 529.903 461.079 529.884 461.139 529.869L461.56 531.875C461.427 531.913 461.24 531.96 460.997 532.017C460.759 532.074 460.473 532.11 460.139 532.125C459.488 532.155 458.929 532.08 458.463 531.898C458.001 531.712 457.647 531.424 457.401 531.034C457.158 530.644 457.041 530.153 457.048 529.562V521.182ZM464.381 532.165C463.972 532.165 463.621 532.021 463.33 531.733C463.042 531.445 462.9 531.097 462.903 530.688C462.9 530.286 463.042 529.943 463.33 529.659C463.621 529.371 463.972 529.227 464.381 529.227C464.767 529.227 465.108 529.371 465.403 529.659C465.703 529.943 465.854 530.286 465.858 530.688C465.854 530.96 465.782 531.208 465.642 531.432C465.506 531.655 465.326 531.833 465.102 531.966C464.883 532.098 464.642 532.165 464.381 532.165ZM473.209 520.364V532H470.396V520.364H473.209ZM479.901 523.273V525.318H474.395V523.273H479.901ZM475.548 521.182H478.327V529.256C478.327 529.426 478.353 529.564 478.406 529.67C478.463 529.773 478.545 529.847 478.651 529.892C478.757 529.934 478.884 529.955 479.031 529.955C479.137 529.955 479.249 529.945 479.366 529.926C479.488 529.903 479.579 529.884 479.639 529.869L480.06 531.875C479.927 531.913 479.74 531.96 479.497 532.017C479.259 532.074 478.973 532.11 478.639 532.125C477.988 532.155 477.429 532.08 476.963 531.898C476.501 531.712 476.147 531.424 475.901 531.034C475.658 530.644 475.541 530.153 475.548 529.562V521.182ZM484.756 532V523.273H487.398V524.875H487.494C487.676 524.345 487.983 523.926 488.415 523.619C488.847 523.312 489.362 523.159 489.96 523.159C490.566 523.159 491.085 523.314 491.517 523.625C491.949 523.936 492.223 524.352 492.341 524.875H492.432C492.595 524.356 492.913 523.941 493.386 523.631C493.86 523.316 494.419 523.159 495.062 523.159C495.888 523.159 496.559 523.424 497.074 523.955C497.589 524.481 497.847 525.205 497.847 526.125V532H495.068V526.761C495.068 526.326 494.956 525.994 494.733 525.767C494.509 525.536 494.22 525.42 493.864 525.42C493.481 525.42 493.18 525.545 492.96 525.795C492.744 526.042 492.636 526.373 492.636 526.79V532H489.966V526.733C489.966 526.328 489.856 526.008 489.636 525.773C489.417 525.538 489.127 525.42 488.767 525.42C488.525 525.42 488.311 525.479 488.125 525.597C487.939 525.71 487.794 525.873 487.688 526.085C487.585 526.297 487.534 526.547 487.534 526.835V532H484.756ZM499.568 532V523.273H502.347V532H499.568ZM500.96 522.256C500.57 522.256 500.235 522.127 499.955 521.869C499.674 521.608 499.534 521.294 499.534 520.926C499.534 520.562 499.674 520.252 499.955 519.994C500.235 519.733 500.57 519.602 500.96 519.602C501.354 519.602 501.689 519.733 501.966 519.994C502.246 520.252 502.386 520.562 502.386 520.926C502.386 521.294 502.246 521.608 501.966 521.869C501.689 522.127 501.354 522.256 500.96 522.256ZM508.183 535.455C507.354 535.455 506.643 535.339 506.053 535.108C505.462 534.877 504.998 534.561 504.661 534.159C504.323 533.758 504.121 533.303 504.053 532.795L506.683 532.648C506.732 532.826 506.823 532.981 506.956 533.114C507.092 533.246 507.268 533.348 507.484 533.42C507.704 533.492 507.962 533.528 508.257 533.528C508.723 533.528 509.107 533.415 509.411 533.188C509.717 532.964 509.871 532.572 509.871 532.011V530.477H509.774C509.664 530.746 509.498 530.987 509.274 531.199C509.051 531.411 508.772 531.578 508.439 531.699C508.109 531.82 507.731 531.881 507.303 531.881C506.666 531.881 506.083 531.733 505.553 531.438C505.026 531.138 504.604 530.676 504.286 530.051C503.971 529.422 503.814 528.614 503.814 527.625C503.814 526.606 503.977 525.767 504.303 525.108C504.628 524.445 505.054 523.955 505.581 523.636C506.111 523.318 506.681 523.159 507.291 523.159C507.75 523.159 508.142 523.239 508.467 523.398C508.797 523.553 509.068 523.754 509.28 524C509.492 524.246 509.653 524.502 509.763 524.767H509.842V523.273H512.609V532.034C512.609 532.773 512.424 533.396 512.053 533.903C511.681 534.411 511.162 534.795 510.496 535.057C509.829 535.322 509.058 535.455 508.183 535.455ZM508.268 529.858C508.606 529.858 508.893 529.769 509.132 529.591C509.371 529.413 509.554 529.157 509.683 528.824C509.812 528.491 509.876 528.091 509.876 527.625C509.876 527.152 509.812 526.744 509.683 526.403C509.558 526.059 509.375 525.794 509.132 525.608C508.893 525.422 508.606 525.33 508.268 525.33C507.924 525.33 507.632 525.424 507.393 525.614C507.155 525.803 506.973 526.07 506.848 526.415C506.727 526.756 506.666 527.159 506.666 527.625C506.666 528.091 506.729 528.491 506.854 528.824C506.979 529.157 507.159 529.413 507.393 529.591C507.632 529.769 507.924 529.858 508.268 529.858ZM517.159 527.023V532H514.381V520.364H517.068V524.875H517.165C517.362 524.337 517.684 523.917 518.131 523.614C518.581 523.311 519.133 523.159 519.784 523.159C520.398 523.159 520.932 523.295 521.386 523.568C521.841 523.837 522.193 524.218 522.443 524.71C522.697 525.203 522.822 525.778 522.818 526.438V532H520.04V526.983C520.044 526.498 519.922 526.119 519.676 525.847C519.43 525.574 519.083 525.438 518.636 525.438C518.345 525.438 518.087 525.502 517.864 525.631C517.644 525.756 517.472 525.936 517.347 526.17C517.225 526.405 517.163 526.689 517.159 527.023ZM529.479 523.273V525.318H523.973V523.273H529.479ZM525.126 521.182H527.905V529.256C527.905 529.426 527.931 529.564 527.984 529.67C528.041 529.773 528.123 529.847 528.229 529.892C528.335 529.934 528.462 529.955 528.609 529.955C528.715 529.955 528.827 529.945 528.945 529.926C529.066 529.903 529.157 529.884 529.217 529.869L529.638 531.875C529.505 531.913 529.318 531.96 529.075 532.017C528.837 532.074 528.551 532.11 528.217 532.125C527.566 532.155 527.007 532.08 526.541 531.898C526.079 531.712 525.725 531.424 525.479 531.034C525.236 530.644 525.119 530.153 525.126 529.562V521.182ZM537.112 527.023V532H534.334V520.364H537.021V524.875H537.118C537.315 524.337 537.637 523.917 538.084 523.614C538.535 523.311 539.086 523.159 539.737 523.159C540.351 523.159 540.885 523.295 541.339 523.568C541.794 523.837 542.146 524.218 542.396 524.71C542.65 525.203 542.775 525.778 542.771 526.438V532H539.993V526.983C539.997 526.498 539.875 526.119 539.629 525.847C539.383 525.574 539.036 525.438 538.589 525.438C538.298 525.438 538.04 525.502 537.817 525.631C537.597 525.756 537.425 525.936 537.3 526.17C537.179 526.405 537.116 526.689 537.112 527.023ZM546.966 532.148C546.409 532.148 545.915 532.055 545.483 531.869C545.055 531.68 544.716 531.396 544.466 531.017C544.22 530.634 544.097 530.155 544.097 529.58C544.097 529.095 544.182 528.686 544.352 528.352C544.523 528.019 544.758 527.748 545.057 527.54C545.356 527.331 545.701 527.174 546.091 527.068C546.481 526.958 546.898 526.884 547.341 526.847C547.837 526.801 548.237 526.754 548.54 526.705C548.843 526.652 549.063 526.578 549.199 526.483C549.339 526.384 549.409 526.246 549.409 526.068V526.04C549.409 525.748 549.309 525.523 549.108 525.364C548.907 525.205 548.636 525.125 548.295 525.125C547.928 525.125 547.633 525.205 547.409 525.364C547.186 525.523 547.044 525.742 546.983 526.023L544.42 525.932C544.496 525.402 544.691 524.928 545.006 524.511C545.324 524.091 545.759 523.761 546.312 523.523C546.869 523.28 547.538 523.159 548.318 523.159C548.875 523.159 549.388 523.225 549.858 523.358C550.328 523.487 550.737 523.676 551.085 523.926C551.434 524.172 551.703 524.475 551.892 524.835C552.085 525.195 552.182 525.606 552.182 526.068V532H549.568V530.784H549.5C549.345 531.08 549.146 531.33 548.903 531.534C548.665 531.739 548.383 531.892 548.057 531.994C547.735 532.097 547.371 532.148 546.966 532.148ZM547.824 530.33C548.123 530.33 548.392 530.269 548.631 530.148C548.873 530.027 549.066 529.86 549.21 529.648C549.354 529.432 549.426 529.182 549.426 528.898V528.068C549.347 528.11 549.25 528.148 549.136 528.182C549.027 528.216 548.905 528.248 548.773 528.278C548.64 528.309 548.504 528.335 548.364 528.358C548.223 528.381 548.089 528.402 547.96 528.42C547.699 528.462 547.475 528.527 547.29 528.614C547.108 528.701 546.968 528.814 546.869 528.955C546.775 529.091 546.727 529.254 546.727 529.443C546.727 529.731 546.83 529.951 547.034 530.102C547.242 530.254 547.506 530.33 547.824 530.33ZM562.034 523.273L559.04 532H555.858L552.869 523.273H555.795L557.403 529.284H557.494L559.108 523.273H562.034ZM566.898 532.165C565.985 532.165 565.197 531.985 564.534 531.625C563.875 531.261 563.367 530.744 563.011 530.074C562.659 529.4 562.483 528.598 562.483 527.67C562.483 526.769 562.661 525.981 563.017 525.307C563.373 524.629 563.875 524.102 564.523 523.727C565.17 523.348 565.934 523.159 566.812 523.159C567.434 523.159 568.002 523.256 568.517 523.449C569.032 523.642 569.477 523.928 569.852 524.307C570.227 524.686 570.519 525.153 570.727 525.71C570.936 526.263 571.04 526.898 571.04 527.614V528.307H563.455V526.693H568.455C568.451 526.398 568.381 526.134 568.244 525.903C568.108 525.672 567.92 525.492 567.682 525.364C567.447 525.231 567.176 525.165 566.869 525.165C566.559 525.165 566.28 525.235 566.034 525.375C565.788 525.511 565.593 525.699 565.449 525.938C565.305 526.172 565.229 526.439 565.222 526.739V528.381C565.222 528.737 565.292 529.049 565.432 529.318C565.572 529.583 565.771 529.79 566.028 529.938C566.286 530.085 566.593 530.159 566.949 530.159C567.195 530.159 567.419 530.125 567.619 530.057C567.82 529.989 567.992 529.888 568.136 529.756C568.28 529.623 568.388 529.46 568.46 529.267L571.011 529.341C570.905 529.913 570.672 530.411 570.312 530.835C569.956 531.256 569.489 531.583 568.909 531.818C568.33 532.049 567.659 532.165 566.898 532.165ZM575.896 532V520.364H578.675V524.767H578.732C578.845 524.502 579.006 524.246 579.214 524C579.427 523.754 579.696 523.553 580.021 523.398C580.351 523.239 580.745 523.159 581.203 523.159C581.809 523.159 582.375 523.318 582.902 523.636C583.432 523.955 583.86 524.445 584.186 525.108C584.512 525.771 584.675 526.616 584.675 527.642C584.675 528.631 584.518 529.458 584.203 530.125C583.893 530.792 583.472 531.292 582.942 531.625C582.415 531.958 581.83 532.125 581.186 532.125C580.747 532.125 580.366 532.053 580.044 531.909C579.722 531.765 579.451 531.576 579.232 531.341C579.016 531.106 578.849 530.854 578.732 530.585H578.646V532H575.896ZM578.618 527.636C578.618 528.106 578.68 528.515 578.805 528.864C578.934 529.212 579.118 529.483 579.357 529.676C579.599 529.866 579.889 529.96 580.226 529.96C580.567 529.96 580.857 529.866 581.095 529.676C581.334 529.483 581.514 529.212 581.635 528.864C581.76 528.515 581.822 528.106 581.822 527.636C581.822 527.167 581.76 526.759 581.635 526.415C581.514 526.07 581.334 525.803 581.095 525.614C580.86 525.424 580.571 525.33 580.226 525.33C579.885 525.33 579.595 525.422 579.357 525.608C579.118 525.794 578.934 526.059 578.805 526.403C578.68 526.748 578.618 527.159 578.618 527.636ZM590.21 532.165C589.297 532.165 588.509 531.985 587.847 531.625C587.188 531.261 586.68 530.744 586.324 530.074C585.972 529.4 585.795 528.598 585.795 527.67C585.795 526.769 585.973 525.981 586.33 525.307C586.686 524.629 587.188 524.102 587.835 523.727C588.483 523.348 589.246 523.159 590.125 523.159C590.746 523.159 591.314 523.256 591.83 523.449C592.345 523.642 592.79 523.928 593.165 524.307C593.54 524.686 593.831 525.153 594.04 525.71C594.248 526.263 594.352 526.898 594.352 527.614V528.307H586.767V526.693H591.767C591.763 526.398 591.693 526.134 591.557 525.903C591.42 525.672 591.233 525.492 590.994 525.364C590.759 525.231 590.489 525.165 590.182 525.165C589.871 525.165 589.593 525.235 589.347 525.375C589.1 525.511 588.905 525.699 588.761 525.938C588.617 526.172 588.542 526.439 588.534 526.739V528.381C588.534 528.737 588.604 529.049 588.744 529.318C588.884 529.583 589.083 529.79 589.341 529.938C589.598 530.085 589.905 530.159 590.261 530.159C590.508 530.159 590.731 530.125 590.932 530.057C591.133 529.989 591.305 529.888 591.449 529.756C591.593 529.623 591.701 529.46 591.773 529.267L594.324 529.341C594.218 529.913 593.985 530.411 593.625 530.835C593.269 531.256 592.801 531.583 592.222 531.818C591.642 532.049 590.972 532.165 590.21 532.165ZM599.851 532.165C598.938 532.165 598.15 531.985 597.487 531.625C596.828 531.261 596.321 530.744 595.964 530.074C595.612 529.4 595.436 528.598 595.436 527.67C595.436 526.769 595.614 525.981 595.97 525.307C596.326 524.629 596.828 524.102 597.476 523.727C598.124 523.348 598.887 523.159 599.766 523.159C600.387 523.159 600.955 523.256 601.47 523.449C601.985 523.642 602.43 523.928 602.805 524.307C603.18 524.686 603.472 525.153 603.68 525.71C603.889 526.263 603.993 526.898 603.993 527.614V528.307H596.408V526.693H601.408C601.404 526.398 601.334 526.134 601.197 525.903C601.061 525.672 600.874 525.492 600.635 525.364C600.4 525.231 600.129 525.165 599.822 525.165C599.512 525.165 599.233 525.235 598.987 525.375C598.741 525.511 598.546 525.699 598.402 525.938C598.258 526.172 598.182 526.439 598.175 526.739V528.381C598.175 528.737 598.245 529.049 598.385 529.318C598.525 529.583 598.724 529.79 598.982 529.938C599.239 530.085 599.546 530.159 599.902 530.159C600.148 530.159 600.372 530.125 600.572 530.057C600.773 529.989 600.946 529.888 601.089 529.756C601.233 529.623 601.341 529.46 601.413 529.267L603.964 529.341C603.858 529.913 603.625 530.411 603.266 530.835C602.91 531.256 602.442 531.583 601.862 531.818C601.283 532.049 600.612 532.165 599.851 532.165ZM608.19 527.023V532H605.412V523.273H608.054V524.875H608.151C608.344 524.341 608.673 523.922 609.139 523.619C609.605 523.312 610.16 523.159 610.804 523.159C611.418 523.159 611.95 523.297 612.401 523.574C612.855 523.847 613.207 524.229 613.457 524.722C613.711 525.21 613.836 525.782 613.832 526.438V532H611.054V526.983C611.058 526.498 610.935 526.119 610.685 525.847C610.438 525.574 610.096 525.438 609.656 525.438C609.365 525.438 609.107 525.502 608.884 525.631C608.664 525.756 608.493 525.936 608.372 526.17C608.255 526.405 608.194 526.689 608.19 527.023ZM618.99 532V523.273H621.632V524.875H621.729C621.911 524.345 622.217 523.926 622.649 523.619C623.081 523.312 623.596 523.159 624.195 523.159C624.801 523.159 625.32 523.314 625.751 523.625C626.183 523.936 626.458 524.352 626.575 524.875H626.666C626.829 524.356 627.147 523.941 627.621 523.631C628.094 523.316 628.653 523.159 629.297 523.159C630.123 523.159 630.793 523.424 631.308 523.955C631.823 524.481 632.081 525.205 632.081 526.125V532H629.303V526.761C629.303 526.326 629.191 525.994 628.967 525.767C628.744 525.536 628.454 525.42 628.098 525.42C627.715 525.42 627.414 525.545 627.195 525.795C626.979 526.042 626.871 526.373 626.871 526.79V532H624.2V526.733C624.2 526.328 624.09 526.008 623.871 525.773C623.651 525.538 623.361 525.42 623.001 525.42C622.759 525.42 622.545 525.479 622.359 525.597C622.174 525.71 622.028 525.873 621.922 526.085C621.82 526.297 621.768 526.547 621.768 526.835V532H618.99ZM637.876 532.165C636.96 532.165 636.172 531.977 635.513 531.602C634.857 531.223 634.352 530.697 633.996 530.023C633.643 529.345 633.467 528.559 633.467 527.665C633.467 526.767 633.643 525.981 633.996 525.307C634.352 524.629 634.857 524.102 635.513 523.727C636.172 523.348 636.96 523.159 637.876 523.159C638.793 523.159 639.579 523.348 640.234 523.727C640.893 524.102 641.399 524.629 641.751 525.307C642.107 525.981 642.286 526.767 642.286 527.665C642.286 528.559 642.107 529.345 641.751 530.023C641.399 530.697 640.893 531.223 640.234 531.602C639.579 531.977 638.793 532.165 637.876 532.165ZM637.893 530.068C638.227 530.068 638.509 529.966 638.74 529.761C638.971 529.557 639.147 529.273 639.268 528.909C639.393 528.545 639.456 528.125 639.456 527.648C639.456 527.163 639.393 526.739 639.268 526.375C639.147 526.011 638.971 525.727 638.74 525.523C638.509 525.318 638.227 525.216 637.893 525.216C637.549 525.216 637.257 525.318 637.018 525.523C636.784 525.727 636.604 526.011 636.479 526.375C636.357 526.739 636.297 527.163 636.297 527.648C636.297 528.125 636.357 528.545 636.479 528.909C636.604 529.273 636.784 529.557 637.018 529.761C637.257 529.966 637.549 530.068 637.893 530.068ZM651.893 523.273L648.899 532H645.717L642.729 523.273H645.655L647.263 529.284H647.354L648.967 523.273H651.893ZM656.757 532.165C655.844 532.165 655.056 531.985 654.393 531.625C653.734 531.261 653.227 530.744 652.871 530.074C652.518 529.4 652.342 528.598 652.342 527.67C652.342 526.769 652.52 525.981 652.876 525.307C653.232 524.629 653.734 524.102 654.382 523.727C655.03 523.348 655.793 523.159 656.672 523.159C657.293 523.159 657.861 523.256 658.376 523.449C658.892 523.642 659.337 523.928 659.712 524.307C660.087 524.686 660.378 525.153 660.587 525.71C660.795 526.263 660.899 526.898 660.899 527.614V528.307H653.314V526.693H658.314C658.31 526.398 658.24 526.134 658.104 525.903C657.967 525.672 657.78 525.492 657.541 525.364C657.306 525.231 657.036 525.165 656.729 525.165C656.418 525.165 656.14 525.235 655.893 525.375C655.647 525.511 655.452 525.699 655.308 525.938C655.164 526.172 655.089 526.439 655.081 526.739V528.381C655.081 528.737 655.151 529.049 655.291 529.318C655.431 529.583 655.63 529.79 655.888 529.938C656.145 530.085 656.452 530.159 656.808 530.159C657.054 530.159 657.278 530.125 657.479 530.057C657.679 529.989 657.852 529.888 657.996 529.756C658.14 529.623 658.248 529.46 658.32 529.267L660.871 529.341C660.765 529.913 660.532 530.411 660.172 530.835C659.816 531.256 659.348 531.583 658.768 531.818C658.189 532.049 657.518 532.165 656.757 532.165ZM665.506 532.125C664.862 532.125 664.277 531.958 663.75 531.625C663.223 531.292 662.803 530.792 662.489 530.125C662.174 529.458 662.017 528.631 662.017 527.642C662.017 526.616 662.18 525.771 662.506 525.108C662.831 524.445 663.258 523.955 663.784 523.636C664.314 523.318 664.884 523.159 665.494 523.159C665.953 523.159 666.345 523.239 666.67 523.398C666.996 523.553 667.265 523.754 667.477 524C667.689 524.246 667.85 524.502 667.96 524.767H668.017V520.364H670.795V532H668.045V530.585H667.96C667.843 530.854 667.676 531.106 667.46 531.341C667.244 531.576 666.973 531.765 666.648 531.909C666.326 532.053 665.945 532.125 665.506 532.125ZM666.472 529.96C666.809 529.96 667.097 529.866 667.335 529.676C667.574 529.483 667.758 529.212 667.886 528.864C668.015 528.515 668.08 528.106 668.08 527.636C668.08 527.159 668.015 526.748 667.886 526.403C667.761 526.059 667.578 525.794 667.335 525.608C667.097 525.422 666.809 525.33 666.472 525.33C666.127 525.33 665.835 525.424 665.597 525.614C665.358 525.803 665.176 526.07 665.051 526.415C664.93 526.759 664.869 527.167 664.869 527.636C664.869 528.106 664.932 528.515 665.057 528.864C665.182 529.212 665.362 529.483 665.597 529.676C665.835 529.866 666.127 529.96 666.472 529.96ZM680.064 532.165C679.147 532.165 678.359 531.977 677.7 531.602C677.045 531.223 676.539 530.697 676.183 530.023C675.831 529.345 675.655 528.559 675.655 527.665C675.655 526.767 675.831 525.981 676.183 525.307C676.539 524.629 677.045 524.102 677.7 523.727C678.359 523.348 679.147 523.159 680.064 523.159C680.981 523.159 681.767 523.348 682.422 523.727C683.081 524.102 683.587 524.629 683.939 525.307C684.295 525.981 684.473 526.767 684.473 527.665C684.473 528.559 684.295 529.345 683.939 530.023C683.587 530.697 683.081 531.223 682.422 531.602C681.767 531.977 680.981 532.165 680.064 532.165ZM680.081 530.068C680.414 530.068 680.696 529.966 680.928 529.761C681.159 529.557 681.335 529.273 681.456 528.909C681.581 528.545 681.643 528.125 681.643 527.648C681.643 527.163 681.581 526.739 681.456 526.375C681.335 526.011 681.159 525.727 680.928 525.523C680.696 525.318 680.414 525.216 680.081 525.216C679.736 525.216 679.445 525.318 679.206 525.523C678.971 525.727 678.791 526.011 678.666 526.375C678.545 526.739 678.484 527.163 678.484 527.648C678.484 528.125 678.545 528.545 678.666 528.909C678.791 529.273 678.971 529.557 679.206 529.761C679.445 529.966 679.736 530.068 680.081 530.068ZM685.896 532V523.273H688.595V524.864H688.686C688.845 524.288 689.105 523.86 689.464 523.58C689.824 523.295 690.243 523.153 690.72 523.153C690.849 523.153 690.982 523.163 691.118 523.182C691.254 523.197 691.381 523.222 691.499 523.256V525.67C691.366 525.625 691.192 525.589 690.976 525.562C690.764 525.536 690.574 525.523 690.408 525.523C690.078 525.523 689.781 525.597 689.516 525.744C689.254 525.888 689.048 526.091 688.896 526.352C688.749 526.61 688.675 526.913 688.675 527.261V532H685.896ZM699.256 532.125C698.612 532.125 698.027 531.958 697.5 531.625C696.973 531.292 696.553 530.792 696.239 530.125C695.924 529.458 695.767 528.631 695.767 527.642C695.767 526.616 695.93 525.771 696.256 525.108C696.581 524.445 697.008 523.955 697.534 523.636C698.064 523.318 698.634 523.159 699.244 523.159C699.703 523.159 700.095 523.239 700.42 523.398C700.746 523.553 701.015 523.754 701.227 524C701.439 524.246 701.6 524.502 701.71 524.767H701.767V520.364H704.545V532H701.795V530.585H701.71C701.593 530.854 701.426 531.106 701.21 531.341C700.994 531.576 700.723 531.765 700.398 531.909C700.076 532.053 699.695 532.125 699.256 532.125ZM700.222 529.96C700.559 529.96 700.847 529.866 701.085 529.676C701.324 529.483 701.508 529.212 701.636 528.864C701.765 528.515 701.83 528.106 701.83 527.636C701.83 527.159 701.765 526.748 701.636 526.403C701.511 526.059 701.328 525.794 701.085 525.608C700.847 525.422 700.559 525.33 700.222 525.33C699.877 525.33 699.585 525.424 699.347 525.614C699.108 525.803 698.926 526.07 698.801 526.415C698.68 526.759 698.619 527.167 698.619 527.636C698.619 528.106 698.682 528.515 698.807 528.864C698.932 529.212 699.112 529.483 699.347 529.676C699.585 529.866 699.877 529.96 700.222 529.96ZM710.382 532.165C709.469 532.165 708.681 531.985 708.018 531.625C707.359 531.261 706.852 530.744 706.496 530.074C706.143 529.4 705.967 528.598 705.967 527.67C705.967 526.769 706.145 525.981 706.501 525.307C706.857 524.629 707.359 524.102 708.007 523.727C708.655 523.348 709.418 523.159 710.297 523.159C710.918 523.159 711.486 523.256 712.001 523.449C712.517 523.642 712.962 523.928 713.337 524.307C713.712 524.686 714.003 525.153 714.212 525.71C714.42 526.263 714.524 526.898 714.524 527.614V528.307H706.939V526.693H711.939C711.935 526.398 711.865 526.134 711.729 525.903C711.592 525.672 711.405 525.492 711.166 525.364C710.931 525.231 710.661 525.165 710.354 525.165C710.043 525.165 709.765 525.235 709.518 525.375C709.272 525.511 709.077 525.699 708.933 525.938C708.789 526.172 708.714 526.439 708.706 526.739V528.381C708.706 528.737 708.776 529.049 708.916 529.318C709.056 529.583 709.255 529.79 709.513 529.938C709.77 530.085 710.077 530.159 710.433 530.159C710.679 530.159 710.903 530.125 711.104 530.057C711.304 529.989 711.477 529.888 711.621 529.756C711.765 529.623 711.873 529.46 711.945 529.267L714.496 529.341C714.39 529.913 714.157 530.411 713.797 530.835C713.441 531.256 712.973 531.583 712.393 531.818C711.814 532.049 711.143 532.165 710.382 532.165ZM718.722 520.364V532H715.943V520.364H718.722ZM724.57 532.165C723.657 532.165 722.869 531.985 722.206 531.625C721.547 531.261 721.039 530.744 720.683 530.074C720.331 529.4 720.155 528.598 720.155 527.67C720.155 526.769 720.333 525.981 720.689 525.307C721.045 524.629 721.547 524.102 722.195 523.727C722.842 523.348 723.606 523.159 724.484 523.159C725.106 523.159 725.674 523.256 726.189 523.449C726.704 523.642 727.149 523.928 727.524 524.307C727.899 524.686 728.191 525.153 728.399 525.71C728.607 526.263 728.712 526.898 728.712 527.614V528.307H721.126V526.693H726.126C726.123 526.398 726.053 526.134 725.916 525.903C725.78 525.672 725.592 525.492 725.354 525.364C725.119 525.231 724.848 525.165 724.541 525.165C724.231 525.165 723.952 525.235 723.706 525.375C723.46 525.511 723.265 525.699 723.121 525.938C722.977 526.172 722.901 526.439 722.893 526.739V528.381C722.893 528.737 722.964 529.049 723.104 529.318C723.244 529.583 723.443 529.79 723.7 529.938C723.958 530.085 724.265 530.159 724.621 530.159C724.867 530.159 725.09 530.125 725.291 530.057C725.492 529.989 725.664 529.888 725.808 529.756C725.952 529.623 726.06 529.46 726.132 529.267L728.683 529.341C728.577 529.913 728.344 530.411 727.984 530.835C727.628 531.256 727.161 531.583 726.581 531.818C726.001 532.049 725.331 532.165 724.57 532.165ZM735.057 523.273V525.318H729.551V523.273H735.057ZM730.705 521.182H733.483V529.256C733.483 529.426 733.509 529.564 733.562 529.67C733.619 529.773 733.701 529.847 733.807 529.892C733.913 529.934 734.04 529.955 734.188 529.955C734.294 529.955 734.405 529.945 734.523 529.926C734.644 529.903 734.735 529.884 734.795 529.869L735.216 531.875C735.083 531.913 734.896 531.96 734.653 532.017C734.415 532.074 734.129 532.11 733.795 532.125C733.144 532.155 732.585 532.08 732.119 531.898C731.657 531.712 731.303 531.424 731.057 531.034C730.814 530.644 730.697 530.153 730.705 529.562V521.182ZM740.46 532.165C739.547 532.165 738.759 531.985 738.097 531.625C737.438 531.261 736.93 530.744 736.574 530.074C736.222 529.4 736.045 528.598 736.045 527.67C736.045 526.769 736.223 525.981 736.58 525.307C736.936 524.629 737.438 524.102 738.085 523.727C738.733 523.348 739.496 523.159 740.375 523.159C740.996 523.159 741.564 523.256 742.08 523.449C742.595 523.642 743.04 523.928 743.415 524.307C743.79 524.686 744.081 525.153 744.29 525.71C744.498 526.263 744.602 526.898 744.602 527.614V528.307H737.017V526.693H742.017C742.013 526.398 741.943 526.134 741.807 525.903C741.67 525.672 741.483 525.492 741.244 525.364C741.009 525.231 740.739 525.165 740.432 525.165C740.121 525.165 739.843 525.235 739.597 525.375C739.35 525.511 739.155 525.699 739.011 525.938C738.867 526.172 738.792 526.439 738.784 526.739V528.381C738.784 528.737 738.854 529.049 738.994 529.318C739.134 529.583 739.333 529.79 739.591 529.938C739.848 530.085 740.155 530.159 740.511 530.159C740.758 530.159 740.981 530.125 741.182 530.057C741.383 529.989 741.555 529.888 741.699 529.756C741.843 529.623 741.951 529.46 742.023 529.267L744.574 529.341C744.468 529.913 744.235 530.411 743.875 530.835C743.519 531.256 743.051 531.583 742.472 531.818C741.892 532.049 741.222 532.165 740.46 532.165ZM749.209 532.125C748.565 532.125 747.98 531.958 747.453 531.625C746.927 531.292 746.506 530.792 746.192 530.125C745.877 529.458 745.72 528.631 745.72 527.642C745.72 526.616 745.883 525.771 746.209 525.108C746.535 524.445 746.961 523.955 747.487 523.636C748.018 523.318 748.588 523.159 749.197 523.159C749.656 523.159 750.048 523.239 750.374 523.398C750.699 523.553 750.968 523.754 751.18 524C751.393 524.246 751.554 524.502 751.663 524.767H751.72V520.364H754.499V532H751.749V530.585H751.663C751.546 530.854 751.379 531.106 751.163 531.341C750.947 531.576 750.677 531.765 750.351 531.909C750.029 532.053 749.648 532.125 749.209 532.125ZM750.175 529.96C750.512 529.96 750.8 529.866 751.038 529.676C751.277 529.483 751.461 529.212 751.589 528.864C751.718 528.515 751.783 528.106 751.783 527.636C751.783 527.159 751.718 526.748 751.589 526.403C751.464 526.059 751.281 525.794 751.038 525.608C750.8 525.422 750.512 525.33 750.175 525.33C749.83 525.33 749.538 525.424 749.3 525.614C749.061 525.803 748.879 526.07 748.754 526.415C748.633 526.759 748.572 527.167 748.572 527.636C748.572 528.106 748.635 528.515 748.76 528.864C748.885 529.212 749.065 529.483 749.3 529.676C749.538 529.866 749.83 529.96 750.175 529.96ZM757.818 532.165C757.409 532.165 757.059 532.021 756.767 531.733C756.479 531.445 756.337 531.097 756.341 530.688C756.337 530.286 756.479 529.943 756.767 529.659C757.059 529.371 757.409 529.227 757.818 529.227C758.205 529.227 758.545 529.371 758.841 529.659C759.14 529.943 759.292 530.286 759.295 530.688C759.292 530.96 759.22 531.208 759.08 531.432C758.943 531.655 758.763 531.833 758.54 531.966C758.32 532.098 758.08 532.165 757.818 532.165Z" fill="#201F1F"/>
<path d="M187.312 488V457.455H194.695V482.004H207.402V488H187.312ZM221.918 488.433C219.512 488.433 217.443 487.94 215.713 486.956C213.993 485.962 212.666 484.58 211.731 482.81C210.806 481.03 210.344 478.967 210.344 476.62C210.344 474.263 210.806 472.2 211.731 470.43C212.666 468.651 213.993 467.268 215.713 466.284C217.443 465.29 219.512 464.793 221.918 464.793C224.324 464.793 226.387 465.29 228.107 466.284C229.838 467.268 231.165 468.651 232.09 470.43C233.024 472.2 233.492 474.263 233.492 476.62C233.492 478.967 233.024 481.03 232.09 482.81C231.165 484.58 229.838 485.962 228.107 486.956C226.387 487.94 224.324 488.433 221.918 488.433ZM221.963 482.929C222.838 482.929 223.578 482.661 224.185 482.124C224.791 481.587 225.254 480.841 225.572 479.886C225.9 478.932 226.064 477.828 226.064 476.575C226.064 475.303 225.9 474.189 225.572 473.234C225.254 472.28 224.791 471.534 224.185 470.997C223.578 470.46 222.838 470.192 221.963 470.192C221.058 470.192 220.292 470.46 219.666 470.997C219.049 471.534 218.577 472.28 218.249 473.234C217.931 474.189 217.771 475.303 217.771 476.575C217.771 477.828 217.931 478.932 218.249 479.886C218.577 480.841 219.049 481.587 219.666 482.124C220.292 482.661 221.058 482.929 221.963 482.929ZM247.922 488.433C245.515 488.433 243.447 487.94 241.717 486.956C239.997 485.962 238.67 484.58 237.735 482.81C236.81 481.03 236.348 478.967 236.348 476.62C236.348 474.263 236.81 472.2 237.735 470.43C238.67 468.651 239.997 467.268 241.717 466.284C243.447 465.29 245.515 464.793 247.922 464.793C250.328 464.793 252.391 465.29 254.111 466.284C255.841 467.268 257.169 468.651 258.094 470.43C259.028 472.2 259.496 474.263 259.496 476.62C259.496 478.967 259.028 481.03 258.094 482.81C257.169 484.58 255.841 485.962 254.111 486.956C252.391 487.94 250.328 488.433 247.922 488.433ZM247.966 482.929C248.841 482.929 249.582 482.661 250.189 482.124C250.795 481.587 251.258 480.841 251.576 479.886C251.904 478.932 252.068 477.828 252.068 476.575C252.068 475.303 251.904 474.189 251.576 473.234C251.258 472.28 250.795 471.534 250.189 470.997C249.582 470.46 248.841 470.192 247.966 470.192C247.062 470.192 246.296 470.46 245.67 470.997C245.053 471.534 244.581 472.28 244.253 473.234C243.934 474.189 243.775 475.303 243.775 476.575C243.775 477.828 243.934 478.932 244.253 479.886C244.581 480.841 245.053 481.587 245.67 482.124C246.296 482.661 247.062 482.929 247.966 482.929ZM269.809 481.989L269.839 473.294H270.853L277.296 465.091H285.559L275.984 476.844H274.06L269.809 481.989ZM263.232 488V457.455H270.525V488H263.232ZM277.46 488L271.465 478.484L276.267 473.309L285.887 488H277.46ZM308.17 472.086L301.473 472.265C301.404 471.788 301.215 471.365 300.906 470.997C300.598 470.619 300.195 470.326 299.698 470.117C299.211 469.898 298.644 469.789 297.998 469.789C297.153 469.789 296.432 469.958 295.835 470.296C295.249 470.634 294.96 471.092 294.97 471.668C294.96 472.116 295.139 472.504 295.507 472.832C295.885 473.16 296.556 473.423 297.521 473.622L301.936 474.457C304.222 474.895 305.923 475.621 307.036 476.635C308.16 477.649 308.727 478.991 308.737 480.662C308.727 482.233 308.259 483.6 307.335 484.763C306.42 485.927 305.167 486.832 303.576 487.478C301.985 488.114 300.166 488.433 298.117 488.433C294.846 488.433 292.266 487.761 290.377 486.419C288.497 485.067 287.423 483.257 287.155 480.99L294.359 480.811C294.518 481.646 294.931 482.283 295.597 482.72C296.263 483.158 297.113 483.376 298.147 483.376C299.082 483.376 299.843 483.202 300.429 482.854C301.016 482.506 301.314 482.044 301.324 481.467C301.314 480.95 301.085 480.538 300.638 480.229C300.191 479.911 299.49 479.663 298.535 479.484L294.538 478.723C292.241 478.305 290.531 477.535 289.407 476.411C288.284 475.278 287.727 473.836 287.737 472.086C287.727 470.555 288.134 469.247 288.96 468.163C289.785 467.07 290.958 466.234 292.48 465.658C294.001 465.081 295.796 464.793 297.864 464.793C300.966 464.793 303.412 465.444 305.202 466.746C306.992 468.039 307.981 469.819 308.17 472.086ZM328.644 457.455V488H321.351V457.455H328.644ZM333.286 488V465.091H340.58V488H333.286ZM336.941 462.421C335.916 462.421 335.036 462.083 334.301 461.407C333.565 460.721 333.197 459.896 333.197 458.931C333.197 457.977 333.565 457.161 334.301 456.485C335.036 455.799 335.916 455.456 336.941 455.456C337.975 455.456 338.855 455.799 339.58 456.485C340.316 457.161 340.684 457.977 340.684 458.931C340.684 459.896 340.316 460.721 339.58 461.407C338.855 462.083 337.975 462.421 336.941 462.421ZM351.799 481.989L351.829 473.294H352.843L359.287 465.091H367.549L357.974 476.844H356.05L351.799 481.989ZM345.222 488V457.455H352.515V488H345.222ZM359.451 488L353.455 478.484L358.257 473.309L367.877 488H359.451ZM379.925 488.433C377.529 488.433 375.46 487.96 373.72 487.016C371.99 486.061 370.658 484.704 369.723 482.944C368.798 481.174 368.336 479.071 368.336 476.635C368.336 474.268 368.803 472.2 369.738 470.43C370.673 468.651 371.99 467.268 373.691 466.284C375.391 465.29 377.394 464.793 379.701 464.793C381.332 464.793 382.823 465.046 384.176 465.553C385.528 466.06 386.696 466.811 387.681 467.805C388.665 468.8 389.431 470.028 389.977 471.489C390.524 472.941 390.798 474.607 390.798 476.486V478.305H370.887V474.07H384.012C384.002 473.294 383.818 472.603 383.46 471.996C383.102 471.39 382.61 470.918 381.983 470.58C381.367 470.232 380.656 470.058 379.85 470.058C379.035 470.058 378.304 470.241 377.658 470.609C377.012 470.967 376.499 471.46 376.122 472.086C375.744 472.702 375.545 473.403 375.525 474.189V478.499C375.525 479.434 375.709 480.254 376.077 480.96C376.445 481.656 376.967 482.198 377.643 482.586C378.319 482.974 379.124 483.168 380.059 483.168C380.705 483.168 381.292 483.078 381.819 482.899C382.346 482.72 382.798 482.457 383.176 482.109C383.554 481.761 383.838 481.333 384.026 480.826L390.723 481.02C390.445 482.521 389.833 483.829 388.889 484.942C387.954 486.046 386.726 486.906 385.205 487.523C383.683 488.129 381.923 488.433 379.925 488.433ZM408.006 496.591C407.131 496.591 406.305 496.521 405.53 496.382C404.754 496.253 404.088 496.079 403.531 495.86L405.142 490.565C405.858 490.804 406.504 490.943 407.081 490.983C407.668 491.023 408.17 490.928 408.587 490.7C409.015 490.481 409.343 490.088 409.572 489.521L409.855 488.835L401.712 465.091H409.348L413.569 481.438H413.808L418.088 465.091H425.769L417.134 490.192C416.716 491.445 416.124 492.549 415.359 493.504C414.603 494.468 413.624 495.224 412.42 495.771C411.227 496.317 409.756 496.591 408.006 496.591ZM438.521 488.433C436.115 488.433 434.047 487.94 432.317 486.956C430.597 485.962 429.269 484.58 428.335 482.81C427.41 481.03 426.947 478.967 426.947 476.62C426.947 474.263 427.41 472.2 428.335 470.43C429.269 468.651 430.597 467.268 432.317 466.284C434.047 465.29 436.115 464.793 438.521 464.793C440.928 464.793 442.991 465.29 444.711 466.284C446.441 467.268 447.768 468.651 448.693 470.43C449.628 472.2 450.095 474.263 450.095 476.62C450.095 478.967 449.628 481.03 448.693 482.81C447.768 484.58 446.441 485.962 444.711 486.956C442.991 487.94 440.928 488.433 438.521 488.433ZM438.566 482.929C439.441 482.929 440.182 482.661 440.788 482.124C441.395 481.587 441.857 480.841 442.175 479.886C442.504 478.932 442.668 477.828 442.668 476.575C442.668 475.303 442.504 474.189 442.175 473.234C441.857 472.28 441.395 471.534 440.788 470.997C440.182 470.46 439.441 470.192 438.566 470.192C437.661 470.192 436.896 470.46 436.269 470.997C435.653 471.534 435.18 472.28 434.852 473.234C434.534 474.189 434.375 475.303 434.375 476.575C434.375 477.828 434.534 478.932 434.852 479.886C435.18 480.841 435.653 481.587 436.269 482.124C436.896 482.661 437.661 482.929 438.566 482.929ZM468.612 478.112V465.091H475.89V488H468.94V483.734H468.701C468.194 485.136 467.329 486.25 466.106 487.075C464.893 487.891 463.426 488.298 461.706 488.298C460.145 488.298 458.773 487.94 457.59 487.224C456.407 486.509 455.487 485.509 454.831 484.227C454.174 482.934 453.841 481.423 453.831 479.692V465.091H461.125V478.261C461.135 479.504 461.463 480.483 462.109 481.199C462.755 481.915 463.635 482.273 464.749 482.273C465.475 482.273 466.126 482.114 466.703 481.795C467.289 481.467 467.752 480.995 468.09 480.379C468.438 479.752 468.612 478.996 468.612 478.112ZM496.014 488.388C494.552 488.388 493.255 488.144 492.121 487.657C490.998 487.16 490.108 486.414 489.452 485.42C488.805 484.415 488.482 483.158 488.482 481.646C488.482 480.374 488.706 479.3 489.153 478.425C489.601 477.55 490.217 476.839 491.003 476.292C491.788 475.745 492.693 475.332 493.717 475.054C494.741 474.766 495.835 474.572 496.998 474.472C498.301 474.353 499.35 474.229 500.145 474.099C500.941 473.96 501.518 473.766 501.876 473.518C502.243 473.259 502.427 472.896 502.427 472.429V472.354C502.427 471.589 502.164 470.997 501.637 470.58C501.11 470.162 500.399 469.953 499.504 469.953C498.54 469.953 497.764 470.162 497.177 470.58C496.591 470.997 496.218 471.574 496.059 472.31L489.332 472.071C489.531 470.679 490.043 469.436 490.868 468.342C491.704 467.239 492.847 466.374 494.299 465.747C495.76 465.111 497.515 464.793 499.564 464.793C501.025 464.793 502.373 464.967 503.606 465.315C504.839 465.653 505.912 466.15 506.827 466.806C507.742 467.452 508.448 468.248 508.945 469.192C509.452 470.137 509.706 471.216 509.706 472.429V488H502.845V484.808H502.666C502.258 485.584 501.736 486.24 501.1 486.777C500.474 487.314 499.733 487.717 498.878 487.985C498.032 488.254 497.078 488.388 496.014 488.388ZM498.266 483.615C499.052 483.615 499.758 483.456 500.384 483.138C501.02 482.82 501.528 482.382 501.905 481.825C502.283 481.259 502.472 480.602 502.472 479.857V477.679C502.263 477.788 502.01 477.888 501.711 477.977C501.423 478.067 501.105 478.151 500.757 478.231C500.409 478.31 500.051 478.38 499.683 478.44C499.315 478.499 498.962 478.554 498.624 478.604C497.938 478.713 497.351 478.882 496.864 479.111C496.387 479.339 496.019 479.638 495.76 480.006C495.512 480.364 495.388 480.791 495.388 481.288C495.388 482.044 495.656 482.621 496.193 483.018C496.74 483.416 497.431 483.615 498.266 483.615ZM514.165 488V465.091H521.25V469.267H521.488C521.906 467.756 522.587 466.632 523.532 465.896C524.476 465.151 525.575 464.778 526.828 464.778C527.166 464.778 527.514 464.803 527.872 464.852C528.23 464.892 528.563 464.957 528.871 465.046V471.385C528.523 471.266 528.066 471.171 527.499 471.102C526.942 471.032 526.445 470.997 526.008 470.997C525.143 470.997 524.362 471.191 523.666 471.579C522.98 471.957 522.438 472.489 522.04 473.175C521.653 473.851 521.459 474.646 521.459 475.561V488H514.165ZM541.362 488.433C538.966 488.433 536.898 487.96 535.158 487.016C533.428 486.061 532.095 484.704 531.161 482.944C530.236 481.174 529.774 479.071 529.774 476.635C529.774 474.268 530.241 472.2 531.176 470.43C532.11 468.651 533.428 467.268 535.128 466.284C536.828 465.29 538.832 464.793 541.139 464.793C542.769 464.793 544.261 465.046 545.613 465.553C546.965 466.06 548.134 466.811 549.118 467.805C550.102 468.8 550.868 470.028 551.415 471.489C551.962 472.941 552.235 474.607 552.235 476.486V478.305H532.324V474.07H545.449C545.439 473.294 545.255 472.603 544.897 471.996C544.539 471.39 544.047 470.918 543.421 470.58C542.804 470.232 542.093 470.058 541.288 470.058C540.472 470.058 539.742 470.241 539.095 470.609C538.449 470.967 537.937 471.46 537.559 472.086C537.181 472.702 536.982 473.403 536.963 474.189V478.499C536.963 479.434 537.146 480.254 537.514 480.96C537.882 481.656 538.404 482.198 539.08 482.586C539.757 482.974 540.562 483.168 541.497 483.168C542.143 483.168 542.73 483.078 543.257 482.899C543.784 482.72 544.236 482.457 544.614 482.109C544.992 481.761 545.275 481.333 545.464 480.826L552.161 481.02C551.882 482.521 551.271 483.829 550.326 484.942C549.392 486.046 548.164 486.906 546.642 487.523C545.121 488.129 543.361 488.433 541.362 488.433ZM572.277 457.455V488H564.984V457.455H572.277ZM587.613 488.433C585.207 488.433 583.139 487.94 581.409 486.956C579.688 485.962 578.361 484.58 577.426 482.81C576.502 481.03 576.039 478.967 576.039 476.62C576.039 474.263 576.502 472.2 577.426 470.43C578.361 468.651 579.688 467.268 581.409 466.284C583.139 465.29 585.207 464.793 587.613 464.793C590.019 464.793 592.083 465.29 593.803 466.284C595.533 467.268 596.86 468.651 597.785 470.43C598.72 472.2 599.187 474.263 599.187 476.62C599.187 478.967 598.72 481.03 597.785 482.81C596.86 484.58 595.533 485.962 593.803 486.956C592.083 487.94 590.019 488.433 587.613 488.433ZM587.658 482.929C588.533 482.929 589.274 482.661 589.88 482.124C590.487 481.587 590.949 480.841 591.267 479.886C591.595 478.932 591.759 477.828 591.759 476.575C591.759 475.303 591.595 474.189 591.267 473.234C590.949 472.28 590.487 471.534 589.88 470.997C589.274 470.46 588.533 470.192 587.658 470.192C586.753 470.192 585.987 470.46 585.361 470.997C584.744 471.534 584.272 472.28 583.944 473.234C583.626 474.189 583.467 475.303 583.467 476.575C583.467 477.828 583.626 478.932 583.944 479.886C584.272 480.841 584.744 481.587 585.361 482.124C585.987 482.661 586.753 482.929 587.658 482.929ZM622.924 472.086L616.227 472.265C616.157 471.788 615.969 471.365 615.66 470.997C615.352 470.619 614.949 470.326 614.452 470.117C613.965 469.898 613.398 469.789 612.752 469.789C611.907 469.789 611.186 469.958 610.589 470.296C610.003 470.634 609.714 471.092 609.724 471.668C609.714 472.116 609.893 472.504 610.261 472.832C610.639 473.16 611.31 473.423 612.275 473.622L616.689 474.457C618.976 474.895 620.677 475.621 621.79 476.635C622.914 477.649 623.481 478.991 623.491 480.662C623.481 482.233 623.013 483.6 622.089 484.763C621.174 485.927 619.921 486.832 618.33 487.478C616.739 488.114 614.92 488.433 612.871 488.433C609.6 488.433 607.02 487.761 605.131 486.419C603.251 485.067 602.177 483.257 601.909 480.99L609.113 480.811C609.272 481.646 609.684 482.283 610.351 482.72C611.017 483.158 611.867 483.376 612.901 483.376C613.836 483.376 614.596 483.202 615.183 482.854C615.77 482.506 616.068 482.044 616.078 481.467C616.068 480.95 615.839 480.538 615.392 480.229C614.944 479.911 614.243 479.663 613.289 479.484L609.292 478.723C606.995 478.305 605.285 477.535 604.161 476.411C603.037 475.278 602.481 473.836 602.491 472.086C602.481 470.555 602.888 469.247 603.714 468.163C604.539 467.07 605.712 466.234 607.233 465.658C608.755 465.081 610.55 464.793 612.618 464.793C615.72 464.793 618.166 465.444 619.956 466.746C621.746 468.039 622.735 469.819 622.924 472.086ZM640.012 465.091V470.46H625.56V465.091H640.012ZM628.588 459.602H635.881V480.796C635.881 481.244 635.951 481.607 636.09 481.885C636.239 482.153 636.453 482.347 636.731 482.467C637.01 482.576 637.343 482.631 637.73 482.631C638.009 482.631 638.302 482.606 638.61 482.556C638.929 482.496 639.167 482.447 639.326 482.407L640.43 487.672C640.082 487.771 639.59 487.896 638.953 488.045C638.327 488.194 637.576 488.288 636.701 488.328C634.991 488.408 633.525 488.209 632.301 487.732C631.088 487.244 630.159 486.489 629.512 485.464C628.876 484.44 628.568 483.153 628.588 481.602V459.602ZM647.835 488.433C646.761 488.433 645.842 488.055 645.076 487.299C644.32 486.543 643.947 485.629 643.957 484.555C643.947 483.501 644.32 482.601 645.076 481.855C645.842 481.099 646.761 480.722 647.835 480.722C648.849 480.722 649.744 481.099 650.52 481.855C651.305 482.601 651.703 483.501 651.713 484.555C651.703 485.271 651.514 485.922 651.146 486.509C650.788 487.095 650.316 487.562 649.729 487.911C649.153 488.259 648.521 488.433 647.835 488.433Z" fill="#201F1F"/>
<path d="M204.239 383.273V352.591L262.761 260.545H290.602V301.455H274.693L243.159 351.455V352.591H329.523V383.273H204.239ZM274.977 406V373.898L275.83 360.545V260.545H312.761V406H274.977ZM409.441 409.977C396.231 409.93 384.82 406.876 375.208 400.815C365.596 394.755 358.186 386.019 352.978 374.608C347.77 363.197 345.189 349.513 345.237 333.557C345.284 317.553 347.888 303.964 353.049 292.79C358.257 281.616 365.644 273.116 375.208 267.293C384.82 261.469 396.231 258.557 409.441 258.557C422.651 258.557 434.062 261.492 443.674 267.364C453.286 273.187 460.696 281.687 465.904 292.861C471.112 304.035 473.693 317.6 473.646 333.557C473.646 349.608 471.041 363.339 465.833 374.75C460.625 386.161 453.215 394.897 443.603 400.957C434.039 406.971 422.651 409.977 409.441 409.977ZM409.441 377.875C416.259 377.875 421.846 374.324 426.202 367.222C430.606 360.072 432.784 348.85 432.737 333.557C432.737 323.566 431.742 315.399 429.754 309.054C427.765 302.709 425.019 298.022 421.515 294.991C418.011 291.914 413.987 290.375 409.441 290.375C402.623 290.375 397.059 293.831 392.751 300.744C388.442 307.657 386.24 318.595 386.146 333.557C386.098 343.737 387.069 352.117 389.058 358.699C391.046 365.233 393.792 370.062 397.296 373.188C400.847 376.312 404.896 377.875 409.441 377.875ZM490.762 383.273V352.591L549.285 260.545H577.126V301.455H561.217L529.683 351.455V352.591H616.046V383.273H490.762ZM561.501 406V373.898L562.353 360.545V260.545H599.285V406H561.501Z" fill="#201F1F"/>
<path d="M366 324H394L366 415L433 294H417L453 233L400 241L366 324Z" fill="#FFC700"/>
</g>
<defs>
<clipPath id="clip0_1662_12368">
<rect width="674" height="327" fill="white" transform="translate(73 212)"/>
</clipPath>
</defs>
</svg>
