<svg width="208" height="208" viewBox="0 0 208 208" fill="none" xmlns="http://www.w3.org/2000/svg">
<g filter="url(#filter0_d_1676_2448)">
<rect x="14" y="10" width="180" height="180" rx="90" fill="white"/>
<path d="M104.013 43.75C102.021 43.7505 100.029 43.7665 98.0377 43.7977C95.4825 43.8407 94.1108 45.087 94.0122 47.1211C93.8867 49.6232 93.9853 52.1252 93.9853 54.8231H113.857C113.857 52.0441 113.969 49.394 113.813 46.7487C113.705 44.8817 112.235 43.8359 109.98 43.8025C107.989 43.7675 106.001 43.75 104.013 43.75ZM96.4553 56.7378C97.4415 59.3306 95.7739 60.6437 93.7566 61.9043C92.4618 62.7163 91.2468 63.6649 90.1301 64.7359C83.4284 71.2537 80.1829 78.5593 82.7201 87.159C83.1729 88.6965 84.047 89.3268 86.1718 89.3029C97.1098 89.1883 108.048 89.2456 118.986 89.2456C124.845 89.2456 125.365 88.8636 126.05 84.0075C126.102 83.5529 126.123 83.0949 126.113 82.6371C126.018 78.59 124.965 74.634 123.053 71.1351C121.142 67.6363 118.432 64.7077 115.175 62.6206C113.064 61.0448 110.092 59.8654 111.186 56.7378H96.4553ZM97.3966 63.8525C97.579 63.8438 97.7616 63.847 97.9435 63.862C95.1765 66.7705 92.6897 69.9665 90.5201 73.4024C89.1422 76.9026 88.161 80.5654 87.5973 84.3131C84.6836 77.3895 91.7484 64.1485 97.3966 63.8525ZM84.4594 90.85V129.135H123.576V90.85H84.4594ZM89.3187 94.8514L90.2556 94.8705C90.4568 95.5343 90.5891 96.2197 90.6501 96.9142C90.677 105.452 90.6635 113.994 90.6591 122.532C90.7061 122.987 90.6757 123.448 90.5694 123.893C90.4663 124.189 90.0494 124.404 89.7715 124.657C89.4711 124.427 88.9915 124.236 88.9063 123.959C88.8002 123.436 88.77 122.898 88.8167 122.365C88.8167 113.975 88.8032 105.59 88.8346 97.2007C88.9182 96.4017 89.0804 95.6142 89.3187 94.8514ZM122.388 130.917C116.283 131.036 110.164 130.964 104.054 130.964H87.1087C82.886 130.964 81.7429 131.704 81.6218 135.252C81.4594 140.283 81.4594 145.319 81.6218 150.351C81.707 152.982 83.648 154.872 86.6829 155.455C89.5384 155.999 92.7615 156.792 94.8953 153.975C95.8187 152.762 96.8856 152.843 98.0332 153.865C99.9787 155.613 105.968 156.997 107.716 155.469C110.63 152.924 112.028 153.588 115.189 155.417C116.227 155.944 117.36 156.227 118.51 156.249C119.661 156.27 120.802 156.029 121.857 155.541C122.913 155.054 123.858 154.331 124.629 153.421C125.4 152.512 125.98 151.437 126.328 150.269C126.563 145.244 126.557 140.21 126.31 135.185C126.182 134.344 125.938 133.529 125.584 132.764C125.136 131.423 124.23 130.878 122.388 130.917ZM87.1804 135.114C87.5301 135.567 88.1487 136.007 88.1667 136.475C88.2787 138.604 88.2249 140.743 88.2249 142.883C88.2249 144.941 88.2698 147.008 88.1801 149.066C88.1622 149.486 87.6198 149.892 87.3194 150.308C86.9294 149.892 86.1987 149.482 86.1942 149.066C86.1114 144.873 86.1084 140.678 86.1853 136.484C86.1898 136.026 86.8353 135.567 87.1804 135.114Z" fill="#33967C"/>
<path d="M104.013 43.75C102.021 43.7505 100.029 43.7665 98.0377 43.7977C95.4825 43.8407 94.1108 45.087 94.0122 47.1211C93.8867 49.6232 93.9853 52.1252 93.9853 54.8231H113.857C113.857 52.0441 113.969 49.394 113.813 46.7487C113.705 44.8817 112.235 43.8359 109.98 43.8025C107.989 43.7675 106.001 43.75 104.013 43.75ZM96.4553 56.7378C97.4415 59.3306 95.7739 60.6437 93.7566 61.9043C92.4618 62.7163 91.2468 63.6649 90.1301 64.7359C83.4284 71.2537 80.1829 78.5593 82.7201 87.159C83.1729 88.6965 84.047 89.3268 86.1718 89.3029C97.1098 89.1883 108.048 89.2456 118.986 89.2456C124.845 89.2456 125.365 88.8636 126.05 84.0075C126.102 83.5529 126.123 83.0949 126.113 82.6371C126.018 78.59 124.965 74.634 123.053 71.1351C121.142 67.6363 118.432 64.7077 115.175 62.6206C113.064 61.0448 110.092 59.8654 111.186 56.7378H96.4553ZM97.3966 63.8525C97.579 63.8438 97.7616 63.847 97.9435 63.862C95.1765 66.7705 92.6897 69.9665 90.5201 73.4024C89.1422 76.9026 88.161 80.5654 87.5973 84.3131C84.6836 77.3895 91.7484 64.1485 97.3966 63.8525ZM84.4594 90.85V129.135H123.576V90.85H84.4594ZM89.3187 94.8514L90.2556 94.8705C90.4568 95.5343 90.5891 96.2197 90.6501 96.9142C90.677 105.452 90.6635 113.994 90.6591 122.532C90.7061 122.987 90.6757 123.448 90.5694 123.893C90.4663 124.189 90.0494 124.404 89.7715 124.657C89.4711 124.427 88.9915 124.236 88.9063 123.959C88.8002 123.436 88.77 122.898 88.8167 122.365C88.8167 113.975 88.8032 105.59 88.8346 97.2007C88.9182 96.4017 89.0804 95.6142 89.3187 94.8514ZM122.388 130.917C116.283 131.036 110.164 130.964 104.054 130.964H87.1087C82.886 130.964 81.7429 131.704 81.6218 135.252C81.4594 140.283 81.4594 145.319 81.6218 150.351C81.707 152.982 83.648 154.872 86.6829 155.455C89.5384 155.999 92.7615 156.792 94.8953 153.975C95.8187 152.762 96.8856 152.843 98.0332 153.865C99.9787 155.613 105.968 156.997 107.716 155.469C110.63 152.924 112.028 153.588 115.189 155.417C116.227 155.944 117.36 156.227 118.51 156.249C119.661 156.27 120.802 156.029 121.857 155.541C122.913 155.054 123.858 154.331 124.629 153.421C125.4 152.512 125.98 151.437 126.328 150.269C126.563 145.244 126.557 140.21 126.31 135.185C126.182 134.344 125.938 133.529 125.584 132.764C125.136 131.423 124.23 130.878 122.388 130.917ZM87.1804 135.114C87.5301 135.567 88.1487 136.007 88.1667 136.475C88.2787 138.604 88.2249 140.743 88.2249 142.883C88.2249 144.941 88.2698 147.008 88.1801 149.066C88.1622 149.486 87.6198 149.892 87.3194 150.308C86.9294 149.892 86.1987 149.482 86.1942 149.066C86.1114 144.873 86.1084 140.678 86.1853 136.484C86.1898 136.026 86.8353 135.567 87.1804 135.114Z" fill="black" fill-opacity="0.2"/>
</g>
<defs>
<filter id="filter0_d_1676_2448" x="0" y="0" width="208" height="208" filterUnits="userSpaceOnUse" color-interpolation-filters="sRGB">
<feFlood flood-opacity="0" result="BackgroundImageFix"/>
<feColorMatrix in="SourceAlpha" type="matrix" values="0 0 0 0 0 0 0 0 0 0 0 0 0 0 0 0 0 0 127 0" result="hardAlpha"/>
<feOffset dy="4"/>
<feGaussianBlur stdDeviation="7"/>
<feComposite in2="hardAlpha" operator="out"/>
<feColorMatrix type="matrix" values="0 0 0 0 0 0 0 0 0 0 0 0 0 0 0 0 0 0 0.2 0"/>
<feBlend mode="normal" in2="BackgroundImageFix" result="effect1_dropShadow_1676_2448"/>
<feBlend mode="normal" in="SourceGraphic" in2="effect1_dropShadow_1676_2448" result="shape"/>
</filter>
</defs>
</svg>
