<svg width="208" height="208" viewBox="0 0 208 208" fill="none" xmlns="http://www.w3.org/2000/svg">
<g filter="url(#filter0_d_1676_5273)">
<rect x="14" y="10" width="180" height="180" rx="90" fill="white"/>
<mask id="mask0_1676_5273" style="mask-type:luminance" maskUnits="userSpaceOnUse" x="42" y="42" width="124" height="116">
<path d="M86.6376 156.25C76.5898 153.36 67.4898 148.013 60.2236 140.73C62.5614 138.059 64.0188 134.777 64.4092 131.303C64.7996 127.83 64.1052 124.323 62.4149 121.232C60.7247 118.141 58.1154 115.606 54.921 113.951C51.7265 112.296 48.0923 111.598 44.4832 111.944C43.661 108.064 43.2479 104.115 43.25 100.155C43.25 94.0397 44.222 88.1408 46.0324 82.5989H46.2875C49.385 82.5999 52.4317 81.8403 55.1398 80.3919C57.8479 78.9436 60.1281 76.8542 61.7652 74.3211C63.4022 71.7881 64.342 68.8948 64.4959 65.9147C64.6497 62.9345 64.0125 59.9658 62.6444 57.2887C69.7661 50.9007 78.3789 46.2571 87.7554 43.75C89.2814 46.6362 91.6065 49.0596 94.4735 50.7518C97.3405 52.4441 100.638 53.3394 104 53.3386C107.362 53.3394 110.659 52.4441 113.526 50.7518C116.393 49.0596 118.719 46.6362 120.245 43.75C129.621 46.2571 138.234 50.9007 145.356 57.2887C143.978 59.9845 143.341 62.9759 143.506 65.9766C143.672 68.9772 144.634 71.8867 146.301 74.4266C147.968 76.9664 150.284 79.0516 153.027 80.4825C155.77 81.9134 158.849 82.6421 161.968 82.5989C163.817 88.2804 164.756 94.2007 164.75 100.155C164.75 104.193 164.325 108.137 163.517 111.947C159.908 111.601 156.273 112.299 153.079 113.954C149.885 115.609 147.275 118.144 145.585 121.235C143.895 124.326 143.2 127.833 143.591 131.306C143.981 134.78 145.439 138.062 147.776 140.733C140.51 148.015 131.41 153.361 121.362 156.25C120.182 152.707 117.865 149.617 114.745 147.425C111.625 145.233 107.862 144.051 104 144.051C100.138 144.051 96.3754 145.233 93.255 147.425C90.1347 149.617 87.8176 152.707 86.6376 156.25Z" fill="white" stroke="white" stroke-width="1.66667" stroke-linejoin="round"/>
<path d="M104.001 120.637C106.793 120.637 109.558 120.107 112.138 119.078C114.717 118.049 117.061 116.54 119.036 114.638C121.01 112.736 122.576 110.478 123.645 107.993C124.713 105.508 125.263 102.845 125.263 100.155C125.263 97.4651 124.713 94.8016 123.645 92.3166C122.576 89.8316 121.01 87.5737 119.036 85.6717C117.061 83.7698 114.717 82.261 112.138 81.2317C109.558 80.2024 106.793 79.6726 104.001 79.6726C98.3616 79.6726 92.9534 81.8305 88.9659 85.6717C84.9784 89.5129 82.7383 94.7226 82.7383 100.155C82.7383 105.587 84.9784 110.797 88.9659 114.638C92.9534 118.479 98.3616 120.637 104.001 120.637Z" fill="black" stroke="black" stroke-width="1.66667" stroke-linejoin="round"/>
</mask>
<g mask="url(#mask0_1676_5273)">
<path d="M31.0938 29.9302H176.894V170.38H31.0938V29.9302Z" fill="#33967C"/>
<path d="M31.0938 29.9302H176.894V170.38H31.0938V29.9302Z" fill="black" fill-opacity="0.2"/>
</g>
</g>
<defs>
<filter id="filter0_d_1676_5273" x="0" y="0" width="208" height="208" filterUnits="userSpaceOnUse" color-interpolation-filters="sRGB">
<feFlood flood-opacity="0" result="BackgroundImageFix"/>
<feColorMatrix in="SourceAlpha" type="matrix" values="0 0 0 0 0 0 0 0 0 0 0 0 0 0 0 0 0 0 127 0" result="hardAlpha"/>
<feOffset dy="4"/>
<feGaussianBlur stdDeviation="7"/>
<feComposite in2="hardAlpha" operator="out"/>
<feColorMatrix type="matrix" values="0 0 0 0 0 0 0 0 0 0 0 0 0 0 0 0 0 0 0.2 0"/>
<feBlend mode="normal" in2="BackgroundImageFix" result="effect1_dropShadow_1676_5273"/>
<feBlend mode="normal" in="SourceGraphic" in2="effect1_dropShadow_1676_5273" result="shape"/>
</filter>
</defs>
</svg>
