<svg width="208" height="208" viewBox="0 0 208 208" fill="none" xmlns="http://www.w3.org/2000/svg">
<g filter="url(#filter0_d_1676_1371)">
<rect x="14" y="10" width="180" height="180" rx="90" fill="white"/>
<path d="M104 43.75C73.0625 43.75 47.75 69.0625 47.75 100C47.75 130.938 73.0625 156.25 104 156.25C134.938 156.25 160.25 130.938 160.25 100C160.25 69.0625 134.938 43.75 104 43.75ZM90.5 129.25C89.2625 129.25 87.575 128.8 86 128.125L82.7937 136L76.3813 133.75L77.2812 131.556C84.0312 114.569 91.7938 95.2188 120.875 88.75C120.875 88.75 87.125 88.75 76.1563 119.969C76.1563 119.969 70.25 114.062 70.25 107.312C70.25 100.562 77 86.2188 93.875 82.8438C98.6562 81.8875 104 81.1562 109.287 80.3125C122.562 78.5125 135.331 76.7125 137.75 71.875C137.75 71.875 127.625 129.25 90.5 129.25Z" fill="#33967C"/>
<path d="M104 43.75C73.0625 43.75 47.75 69.0625 47.75 100C47.75 130.938 73.0625 156.25 104 156.25C134.938 156.25 160.25 130.938 160.25 100C160.25 69.0625 134.938 43.75 104 43.75ZM90.5 129.25C89.2625 129.25 87.575 128.8 86 128.125L82.7937 136L76.3813 133.75L77.2812 131.556C84.0312 114.569 91.7938 95.2188 120.875 88.75C120.875 88.75 87.125 88.75 76.1563 119.969C76.1563 119.969 70.25 114.062 70.25 107.312C70.25 100.562 77 86.2188 93.875 82.8438C98.6562 81.8875 104 81.1562 109.287 80.3125C122.562 78.5125 135.331 76.7125 137.75 71.875C137.75 71.875 127.625 129.25 90.5 129.25Z" fill="black" fill-opacity="0.2"/>
</g>
<defs>
<filter id="filter0_d_1676_1371" x="0" y="0" width="208" height="208" filterUnits="userSpaceOnUse" color-interpolation-filters="sRGB">
<feFlood flood-opacity="0" result="BackgroundImageFix"/>
<feColorMatrix in="SourceAlpha" type="matrix" values="0 0 0 0 0 0 0 0 0 0 0 0 0 0 0 0 0 0 127 0" result="hardAlpha"/>
<feOffset dy="4"/>
<feGaussianBlur stdDeviation="7"/>
<feComposite in2="hardAlpha" operator="out"/>
<feColorMatrix type="matrix" values="0 0 0 0 0 0 0 0 0 0 0 0 0 0 0 0 0 0 0.2 0"/>
<feBlend mode="normal" in2="BackgroundImageFix" result="effect1_dropShadow_1676_1371"/>
<feBlend mode="normal" in="SourceGraphic" in2="effect1_dropShadow_1676_1371" result="shape"/>
</filter>
</defs>
</svg>
