<svg width="208" height="208" viewBox="0 0 208 208" fill="none" xmlns="http://www.w3.org/2000/svg">
<g filter="url(#filter0_d_1676_766)">
<rect x="14" y="10" width="180" height="180" rx="90" fill="white"/>
<path d="M109.625 83.125V52.1875L140.562 83.125M70.25 43.75C64.0062 43.75 59 48.7562 59 55V145C59 147.984 60.1853 150.845 62.295 152.955C64.4048 155.065 67.2663 156.25 70.25 156.25H137.75C140.734 156.25 143.595 155.065 145.705 152.955C147.815 150.845 149 147.984 149 145V77.5L115.25 43.75H70.25Z" fill="#33967C"/>
<path d="M109.625 83.125V52.1875L140.562 83.125M70.25 43.75C64.0062 43.75 59 48.7562 59 55V145C59 147.984 60.1853 150.845 62.295 152.955C64.4048 155.065 67.2663 156.25 70.25 156.25H137.75C140.734 156.25 143.595 155.065 145.705 152.955C147.815 150.845 149 147.984 149 145V77.5L115.25 43.75H70.25Z" fill="black" fill-opacity="0.2"/>
</g>
<defs>
<filter id="filter0_d_1676_766" x="0" y="0" width="208" height="208" filterUnits="userSpaceOnUse" color-interpolation-filters="sRGB">
<feFlood flood-opacity="0" result="BackgroundImageFix"/>
<feColorMatrix in="SourceAlpha" type="matrix" values="0 0 0 0 0 0 0 0 0 0 0 0 0 0 0 0 0 0 127 0" result="hardAlpha"/>
<feOffset dy="4"/>
<feGaussianBlur stdDeviation="7"/>
<feComposite in2="hardAlpha" operator="out"/>
<feColorMatrix type="matrix" values="0 0 0 0 0 0 0 0 0 0 0 0 0 0 0 0 0 0 0.2 0"/>
<feBlend mode="normal" in2="BackgroundImageFix" result="effect1_dropShadow_1676_766"/>
<feBlend mode="normal" in="SourceGraphic" in2="effect1_dropShadow_1676_766" result="shape"/>
</filter>
</defs>
</svg>
