<svg width="208" height="208" viewBox="0 0 208 208" fill="none" xmlns="http://www.w3.org/2000/svg">
<g filter="url(#filter0_d_1676_6619)">
<g clip-path="url(#clip0_1676_6619)">
<rect x="14" y="10" width="180" height="180" rx="90" fill="white"/>
<path fill-rule="evenodd" clip-rule="evenodd" d="M76.9973 43.75C75.586 43.7494 74.226 44.2794 73.1873 45.2349C72.1486 46.1904 71.507 47.5015 71.3898 48.9081L68.9826 77.8319C68.9191 78.5942 68.7009 79.3356 68.3411 80.0107C67.9814 80.6858 67.4877 81.2804 66.8904 81.7581L58.7239 88.2944C57.4067 89.3477 56.3432 90.6837 55.6121 92.2036C54.881 93.7235 54.5009 95.3884 54.5 97.075V145C54.5 147.984 55.6851 150.845 57.7946 152.955C59.9042 155.065 62.7653 156.25 65.7486 156.25H99.4945C102.478 156.25 105.339 155.065 107.449 152.955C109.558 150.845 110.743 147.984 110.743 145V97.075C110.743 95.3888 110.364 93.7242 109.634 92.2044C108.903 90.6845 107.841 89.3482 106.525 88.2944L98.3528 81.7581C97.7554 81.2804 97.2618 80.6858 96.902 80.0107C96.5423 79.3356 96.324 78.5942 96.2605 77.8319L93.8533 48.9081C93.7362 47.5015 93.0946 46.1904 92.0559 45.2349C91.0171 44.2794 89.6572 43.7494 88.2459 43.75H76.9973ZM124.776 77.5C122.649 77.499 120.594 78.2653 118.988 79.6583C117.381 81.0512 116.331 82.9773 116.03 85.0825L113.184 104.995C112.493 109.833 113.572 114.759 116.224 118.864C118.876 122.97 122.922 125.979 127.616 127.338V145H124.804C123.312 145 121.882 145.593 120.827 146.648C119.772 147.702 119.18 149.133 119.18 150.625C119.18 152.117 119.772 153.548 120.827 154.602C121.882 155.657 123.312 156.25 124.804 156.25H141.677C143.169 156.25 144.599 155.657 145.654 154.602C146.709 153.548 147.301 152.117 147.301 150.625C147.301 149.133 146.709 147.702 145.654 146.648C144.599 145.593 143.169 145 141.677 145H138.865V127.338C143.558 125.979 147.603 122.971 150.255 118.867C152.907 114.762 153.987 109.838 153.297 105.001L150.451 85.0881C150.151 82.9819 149.102 81.0545 147.495 79.6604C145.888 78.2663 143.832 77.4991 141.705 77.5H124.776Z" fill="#33967C"/>
<path fill-rule="evenodd" clip-rule="evenodd" d="M76.9973 43.75C75.586 43.7494 74.226 44.2794 73.1873 45.2349C72.1486 46.1904 71.507 47.5015 71.3898 48.9081L68.9826 77.8319C68.9191 78.5942 68.7009 79.3356 68.3411 80.0107C67.9814 80.6858 67.4877 81.2804 66.8904 81.7581L58.7239 88.2944C57.4067 89.3477 56.3432 90.6837 55.6121 92.2036C54.881 93.7235 54.5009 95.3884 54.5 97.075V145C54.5 147.984 55.6851 150.845 57.7946 152.955C59.9042 155.065 62.7653 156.25 65.7486 156.25H99.4945C102.478 156.25 105.339 155.065 107.449 152.955C109.558 150.845 110.743 147.984 110.743 145V97.075C110.743 95.3888 110.364 93.7242 109.634 92.2044C108.903 90.6845 107.841 89.3482 106.525 88.2944L98.3528 81.7581C97.7554 81.2804 97.2618 80.6858 96.902 80.0107C96.5423 79.3356 96.324 78.5942 96.2605 77.8319L93.8533 48.9081C93.7362 47.5015 93.0946 46.1904 92.0559 45.2349C91.0171 44.2794 89.6572 43.7494 88.2459 43.75H76.9973ZM124.776 77.5C122.649 77.499 120.594 78.2653 118.988 79.6583C117.381 81.0512 116.331 82.9773 116.03 85.0825L113.184 104.995C112.493 109.833 113.572 114.759 116.224 118.864C118.876 122.97 122.922 125.979 127.616 127.338V145H124.804C123.312 145 121.882 145.593 120.827 146.648C119.772 147.702 119.18 149.133 119.18 150.625C119.18 152.117 119.772 153.548 120.827 154.602C121.882 155.657 123.312 156.25 124.804 156.25H141.677C143.169 156.25 144.599 155.657 145.654 154.602C146.709 153.548 147.301 152.117 147.301 150.625C147.301 149.133 146.709 147.702 145.654 146.648C144.599 145.593 143.169 145 141.677 145H138.865V127.338C143.558 125.979 147.603 122.971 150.255 118.867C152.907 114.762 153.987 109.838 153.297 105.001L150.451 85.0881C150.151 82.9819 149.102 81.0545 147.495 79.6604C145.888 78.2663 143.832 77.4991 141.705 77.5H124.776Z" fill="black" fill-opacity="0.2"/>
</g>
</g>
<defs>
<filter id="filter0_d_1676_6619" x="0" y="0" width="208" height="208" filterUnits="userSpaceOnUse" color-interpolation-filters="sRGB">
<feFlood flood-opacity="0" result="BackgroundImageFix"/>
<feColorMatrix in="SourceAlpha" type="matrix" values="0 0 0 0 0 0 0 0 0 0 0 0 0 0 0 0 0 0 127 0" result="hardAlpha"/>
<feOffset dy="4"/>
<feGaussianBlur stdDeviation="7"/>
<feComposite in2="hardAlpha" operator="out"/>
<feColorMatrix type="matrix" values="0 0 0 0 0 0 0 0 0 0 0 0 0 0 0 0 0 0 0.2 0"/>
<feBlend mode="normal" in2="BackgroundImageFix" result="effect1_dropShadow_1676_6619"/>
<feBlend mode="normal" in="SourceGraphic" in2="effect1_dropShadow_1676_6619" result="shape"/>
</filter>
<clipPath id="clip0_1676_6619">
<rect x="14" y="10" width="180" height="180" rx="90" fill="white"/>
</clipPath>
</defs>
</svg>
