<svg width="208" height="208" viewBox="0 0 208 208" fill="none" xmlns="http://www.w3.org/2000/svg">
<g filter="url(#filter0_d_1676_7120)">
<rect x="14" y="10" width="180" height="180" rx="90" fill="white"/>
<path d="M79.25 65.1786H147.312C148.954 65.1786 150.527 65.743 151.688 66.7476C152.848 67.7523 153.5 69.1149 153.5 70.5357V150.893C153.5 152.314 152.848 153.676 151.688 154.681C150.527 155.686 148.954 156.25 147.312 156.25H60.6875C59.0465 156.25 57.4727 155.686 56.3123 154.681C55.1519 153.676 54.5 152.314 54.5 150.893V97.3214L79.25 65.1786ZM110.188 43.75H141.125C142.766 43.75 144.34 44.3144 145.5 45.3191C146.661 46.3237 147.312 47.6863 147.312 49.1071V59.8214H104V49.1071C104 47.6863 104.652 46.3237 105.812 45.3191C106.973 44.3144 108.546 43.75 110.188 43.75ZM66.875 102.679V140.179H79.25V102.679H66.875Z" fill="#33967C"/>
<path d="M79.25 65.1786H147.312C148.954 65.1786 150.527 65.743 151.688 66.7476C152.848 67.7523 153.5 69.1149 153.5 70.5357V150.893C153.5 152.314 152.848 153.676 151.688 154.681C150.527 155.686 148.954 156.25 147.312 156.25H60.6875C59.0465 156.25 57.4727 155.686 56.3123 154.681C55.1519 153.676 54.5 152.314 54.5 150.893V97.3214L79.25 65.1786ZM110.188 43.75H141.125C142.766 43.75 144.34 44.3144 145.5 45.3191C146.661 46.3237 147.312 47.6863 147.312 49.1071V59.8214H104V49.1071C104 47.6863 104.652 46.3237 105.812 45.3191C106.973 44.3144 108.546 43.75 110.188 43.75ZM66.875 102.679V140.179H79.25V102.679H66.875Z" fill="black" fill-opacity="0.2"/>
</g>
<defs>
<filter id="filter0_d_1676_7120" x="0" y="0" width="208" height="208" filterUnits="userSpaceOnUse" color-interpolation-filters="sRGB">
<feFlood flood-opacity="0" result="BackgroundImageFix"/>
<feColorMatrix in="SourceAlpha" type="matrix" values="0 0 0 0 0 0 0 0 0 0 0 0 0 0 0 0 0 0 127 0" result="hardAlpha"/>
<feOffset dy="4"/>
<feGaussianBlur stdDeviation="7"/>
<feComposite in2="hardAlpha" operator="out"/>
<feColorMatrix type="matrix" values="0 0 0 0 0 0 0 0 0 0 0 0 0 0 0 0 0 0 0.2 0"/>
<feBlend mode="normal" in2="BackgroundImageFix" result="effect1_dropShadow_1676_7120"/>
<feBlend mode="normal" in="SourceGraphic" in2="effect1_dropShadow_1676_7120" result="shape"/>
</filter>
</defs>
</svg>
