<svg width="80" height="80" viewBox="0 0 80 80" fill="none" xmlns="http://www.w3.org/2000/svg">
<path fill-rule="evenodd" clip-rule="evenodd" d="M41.0368 5.2391C40.7096 5.08153 40.3544 5 39.995 5C39.6355 5 39.2803 5.08153 38.9531 5.2391L25.7514 11.6028L39.9849 18.4675L54.2285 11.5975L41.0368 5.2391ZM23.3858 32.5913V16.3143L37.4784 23.1097V41.0976L24.8504 35.0163C24.4108 34.8046 24.038 34.4634 23.7765 34.0334C23.515 33.6033 23.3759 33.1027 23.3758 32.5913H23.3858ZM42.5115 68.3645V50.5632L55.8592 57.0015V74.9893L43.2463 68.9081C42.9709 68.7755 42.7253 68.5913 42.5115 68.3645ZM60.8923 75V57.0015L75 50.2007V66.4831C74.9999 66.9945 74.8607 67.4951 74.5993 67.9251C74.3378 68.3551 73.965 68.6964 73.5253 68.9081L60.8923 75ZM37.4684 50.5632V68.3858C37.259 68.603 37.0154 68.7797 36.7486 68.9081L24.1156 75V57.0015L37.4684 50.5632ZM19.0825 57.0015V74.9893L6.47469 68.9081C6.03505 68.6964 5.66223 68.3551 5.40074 67.9251C5.13925 67.4951 5.00013 66.9945 5 66.4831V50.2061L19.0926 57.0015H19.0825ZM42.5014 41.1082V23.1044L56.6091 16.3036V32.5913C56.609 33.1027 56.4699 33.6033 56.2084 34.0334C55.9469 34.4634 55.5741 34.8046 55.1345 35.0163L42.5014 41.1082ZM57.3389 39.1362C57.6661 38.9786 58.0214 38.8971 58.3808 38.8971C58.7402 38.8971 59.0955 38.9786 59.4226 39.1362L72.6093 45.4893L58.3657 52.3593L44.1473 45.4893L57.344 39.1256L57.3389 39.1362ZM20.5673 39.1362C20.8945 38.9786 21.2497 38.8971 21.6091 38.8971C21.9686 38.8971 22.3238 38.9786 22.651 39.1362L35.8376 45.4893L21.5991 52.3646L7.37058 45.4893L20.5673 39.1362Z" fill="#FAF7E8"/>
</svg>
