<svg width="80" height="80" viewBox="0 0 80 80" fill="none" xmlns="http://www.w3.org/2000/svg">
<rect x="1" y="1" width="78" height="78" rx="39" stroke="white" stroke-width="2"/>
<path d="M58.2166 55.5095H54.7683V32.6834H55.458C55.6409 32.6834 55.8163 32.6033 55.9456 32.4606C56.075 32.3179 56.1476 32.1243 56.1476 31.9226C56.1476 31.7208 56.075 31.5272 55.9456 31.3845C55.8163 31.2418 55.6409 31.1617 55.458 31.1617H46.4925V23.553H47.1821C47.365 23.553 47.5404 23.4728 47.6698 23.3301C47.7991 23.1874 47.8718 22.9939 47.8718 22.7921C47.8718 22.5903 47.7991 22.3968 47.6698 22.2541C47.5404 22.1114 47.365 22.0312 47.1821 22.0312H22.3545C22.1716 22.0312 21.9962 22.1114 21.8669 22.2541C21.7375 22.3968 21.6649 22.5903 21.6649 22.7921C21.6649 22.9939 21.7375 23.1874 21.8669 23.3301C21.9962 23.4728 22.1716 23.553 22.3545 23.553H23.0442V55.5095H19.5959C19.413 55.5095 19.2376 55.5897 19.1082 55.7324C18.9789 55.8751 18.9062 56.0686 18.9062 56.2704C18.9062 56.4722 18.9789 56.6657 19.1082 56.8084C19.2376 56.9511 19.413 57.0312 19.5959 57.0312H58.2166C58.3995 57.0312 58.5749 56.9511 58.7043 56.8084C58.8336 56.6657 58.9062 56.4722 58.9062 56.2704C58.9062 56.0686 58.8336 55.8751 58.7043 55.7324C58.5749 55.5897 58.3995 55.5095 58.2166 55.5095ZM53.389 32.6834V55.5095H46.4925V32.6834H53.389ZM24.4235 23.553H45.1131V55.5095H39.5959V45.6182C39.5959 45.4164 39.5232 45.2229 39.3939 45.0802C39.2646 44.9375 39.0892 44.8573 38.9062 44.8573H30.6304C30.4475 44.8573 30.2721 44.9375 30.1427 45.0802C30.0134 45.2229 29.9407 45.4164 29.9407 45.6182V55.5095H24.4235V23.553ZM38.2166 55.5095H31.32V46.3791H38.2166V55.5095ZM28.5614 30.4008C28.5614 30.199 28.6341 30.0055 28.7634 29.8628C28.8928 29.7201 29.0682 29.6399 29.2511 29.6399H32.0097C32.1926 29.6399 32.368 29.7201 32.4974 29.8628C32.6267 30.0055 32.6994 30.199 32.6994 30.4008C32.6994 30.6026 32.6267 30.7961 32.4974 30.9388C32.368 31.0815 32.1926 31.1617 32.0097 31.1617H29.2511C29.0682 31.1617 28.8928 31.0815 28.7634 30.9388C28.6341 30.7961 28.5614 30.6026 28.5614 30.4008ZM36.8373 30.4008C36.8373 30.199 36.9099 30.0055 37.0393 29.8628C37.1686 29.7201 37.344 29.6399 37.5269 29.6399H40.2856C40.4685 29.6399 40.6439 29.7201 40.7732 29.8628C40.9026 30.0055 40.9752 30.199 40.9752 30.4008C40.9752 30.6026 40.9026 30.7961 40.7732 30.9388C40.6439 31.0815 40.4685 31.1617 40.2856 31.1617H37.5269C37.344 31.1617 37.1686 31.0815 37.0393 30.9388C36.9099 30.7961 36.8373 30.6026 36.8373 30.4008ZM29.2511 38.7704C29.0682 38.7704 28.8928 38.6902 28.7634 38.5475C28.6341 38.4048 28.5614 38.2113 28.5614 38.0095C28.5614 37.8077 28.6341 37.6142 28.7634 37.4715C28.8928 37.3288 29.0682 37.2486 29.2511 37.2486H32.0097C32.1926 37.2486 32.368 37.3288 32.4974 37.4715C32.6267 37.6142 32.6994 37.8077 32.6994 38.0095C32.6994 38.2113 32.6267 38.4048 32.4974 38.5475C32.368 38.6902 32.1926 38.7704 32.0097 38.7704H29.2511ZM36.8373 38.0095C36.8373 37.8077 36.9099 37.6142 37.0393 37.4715C37.1686 37.3288 37.344 37.2486 37.5269 37.2486H40.2856C40.4685 37.2486 40.6439 37.3288 40.7732 37.4715C40.9026 37.6142 40.9752 37.8077 40.9752 38.0095C40.9752 38.2113 40.9026 38.4048 40.7732 38.5475C40.6439 38.6902 40.4685 38.7704 40.2856 38.7704H37.5269C37.344 38.7704 37.1686 38.6902 37.0393 38.5475C36.9099 38.4048 36.8373 38.2113 36.8373 38.0095Z" fill="white"/>
</svg>
