<svg width="80" height="80" viewBox="0 0 80 80" fill="none" xmlns="http://www.w3.org/2000/svg">
<rect x="1" y="1" width="78" height="78" rx="39" stroke="white" stroke-width="2"/>
<path d="M40 30.5172L53.3333 37.4138V65H26.6667V37.4138L40 30.5172ZM40 30.5172V15M15 65H65M20 65V44.3103H26.6667M60 65V44.3103H53.3333M36.6667 65V54.6552H43.3333V65M40 16.7241H50V23.6207H40M40 47.7586C39.1159 47.7586 38.2681 47.3953 37.643 46.7486C37.0179 46.102 36.6667 45.2249 36.6667 44.3103C36.6667 43.3958 37.0179 42.5187 37.643 41.872C38.2681 41.2254 39.1159 40.8621 40 40.8621C40.8841 40.8621 41.7319 41.2254 42.357 41.872C42.9821 42.5187 43.3333 43.3958 43.3333 44.3103C43.3333 45.2249 42.9821 46.102 42.357 46.7486C41.7319 47.3953 40.8841 47.7586 40 47.7586Z" stroke="white" stroke-width="2"/>
</svg>
